<svg xmlns="http://www.w3.org/2000/svg" xmlns:xlink="http://www.w3.org/1999/xlink" width="62.078mm" height="43.078mm" viewBox="4037.6 3039.5 244.4 169.6"><title></title><style type="text/css">
*[layerid="1"] {stroke:#000000;fill:#000000;}
*[layerid="2"] {stroke:#000000;fill:#000000;}
*[layerid="3"] {stroke:#000000;fill:#000000;}
*[layerid="4"] {stroke:#000000;fill:#000000;}
*[layerid="5"] {stroke:#000000;fill:#000000;}
*[layerid="6"] {stroke:#000000;fill:#000000;}
*[layerid="7"] {stroke:#000000;fill:#000000;}
*[layerid="8"] {stroke:#000000;fill:#000000;}
*[layerid="9"] {stroke:#000000;fill:#000000;}
*[layerid="10"] {stroke:#000000;fill:#000000;}
*[layerid="11"] {stroke:#000000;fill:#000000;}
*[layerid="12"] {stroke:#000000;fill:#000000;}
*[layerid="13"] {stroke:#000000;fill:#000000;}
*[layerid="14"] {stroke:#000000;fill:#000000;}
*[layerid="15"] {stroke:#000000;fill:#000000;}
*[layerid="19"] {stroke:#000000;fill:#000000;}
*[layerid="21"] {stroke:#000000;fill:#000000;}
*[layerid="22"] {stroke:#000000;fill:#000000;}
*[layerid="23"] {stroke:#000000;fill:#000000;}
*[layerid="24"] {stroke:#000000;fill:#000000;}
*[layerid="25"] {stroke:#000000;fill:#000000;}
*[layerid="26"] {stroke:#000000;fill:#000000;}
*[layerid="27"] {stroke:#000000;fill:#000000;}
*[layerid="28"] {stroke:#000000;fill:#000000;}
*[layerid="29"] {stroke:#000000;fill:#000000;}
*[layerid="30"] {stroke:#000000;fill:#000000;}
*[layerid="31"] {stroke:#000000;fill:#000000;}
*[layerid="32"] {stroke:#000000;fill:#000000;}
*[layerid="33"] {stroke:#000000;fill:#000000;}
*[layerid="34"] {stroke:#000000;fill:#000000;}
*[layerid="35"] {stroke:#000000;fill:#000000;}
*[layerid="36"] {stroke:#000000;fill:#000000;}
*[layerid="37"] {stroke:#000000;fill:#000000;}
*[layerid="38"] {stroke:#000000;fill:#000000;}
*[layerid="39"] {stroke:#000000;fill:#000000;}
*[layerid="40"] {stroke:#000000;fill:#000000;}
*[layerid="41"] {stroke:#000000;fill:#000000;}
*[layerid="42"] {stroke:#000000;fill:#000000;}
*[layerid="43"] {stroke:#000000;fill:#000000;}
*[layerid="44"] {stroke:#000000;fill:#000000;}
*[layerid="45"] {stroke:#000000;fill:#000000;}
*[layerid="46"] {stroke:#000000;fill:#000000;}
*[layerid="47"] {stroke:#000000;fill:#000000;}
*[layerid="48"] {stroke:#000000;fill:#000000;}
*[layerid="49"] {stroke:#000000;fill:#000000;}
*[layerid="50"] {stroke:#000000;fill:#000000;}
*[layerid="51"] {stroke:#000000;fill:#000000;}
*[layerid="52"] {stroke:#000000;fill:#000000;}
*[layerid="99"] {stroke:#000000;fill:#000000;}
*[layerid="100"] {stroke:#000000;fill:#000000;}
*[layerid="101"] {stroke:#000000;fill:#000000;}
*[layerid="Hole"] {stroke:#000000;fill:#000000;}
*[layerid="DRCError"] {stroke:#000000;fill:#000000;}
*[fill="none"] {fill: none;}
*[stroke="none"] {stroke: none;}
path, polyline, polygon, line {stroke-linecap:round;}
g[c_partid="part_pad"][layerid="1"] ellipse:not([c_etype="pad_outer"]) {fill:#000000;}
g[c_partid="part_pad"][layerid="1"] polygon:not([c_etype="pad_outer"]) {fill:#000000;}
g[c_partid="part_pad"][layerid="1"] polyline:not([c_etype="pad_outer"]) {stroke:#000000;}
g[c_partid="part_pad"][layerid="2"] ellipse:not([c_etype="pad_outer"]) {fill:#000000;}
g[c_partid="part_pad"][layerid="2"] polygon:not([c_etype="pad_outer"]) {fill:#000000;}
g[c_partid="part_pad"][layerid="2"] polyline:not([c_etype="pad_outer"]) {stroke:#000000;}
g[c_partid="part_pad"][layerid="11"] ellipse:not([c_etype="pad_outer"]) {fill:#000000;}
g[c_partid="part_pad"][layerid="11"] polygon:not([c_etype="pad_outer"]) {fill:#000000;}
g[c_partid="part_pad"][layerid="11"] polyline:not([c_etype="pad_outer"]) {stroke:#000000;}
g[c_partid="part_pad"][layerid="11"] circle {fill:#FFFFFF;}
g[c_partid="part_pad"][layerid="11"] > polyline:nth-of-type(2) {stroke:#FFFFFF;}
g[c_partid="part_pad"][layerid="11"][c_shape="ELLIPSE"]  polyline:nth-last-of-type(1) {stroke:#FFFFFF;}
g[c_partid="part_pad"][layerid="11"][c_shape="RECT"]  polyline:nth-last-of-type(1) {stroke:#FFFFFF;}
g[c_partid="part_pad"][layerid="11"][c_shape="POLYGON"]  polyline:nth-last-of-type(1) {stroke:#FFFFFF;}
g[c_partid="part_via"] > * + circle, #gCurParts g[c_partid="part_via"] > * + circle {fill:#FFFFFF;}
g[c_partid="part_pad"] > polygon[c_etype="pad_outer"], #gCurParts g[c_partid="part_pad"] > polygon[c_etype="pad_outer"] {stroke-linejoin: miter;stroke-miterlimit: 100;}
g[c_partid="part_hole"] > circle {fill: #FFFFFF;}path, polyline, polygon {stroke-linejoin:round;}
rect, circle, ellipse, polyline, line, polygon, path {shape-rendering:crispEdges;}
</style>
<rect x="4037.6" y="3039.5" width="244.4" height="169.6" fill="#FFFFFF" stroke="none"/><polyline points="4092.7481 3141.9091 4083.0401 3141.9091 4079.3541 3138.2231 4069.2691 3138.2231 4065.5831 3141.9091" stroke-width="1"  stroke-linecap="round" fill="none" layerid="1" net="U2_7" id="gge1327" locked="0" /><polyline points="4092.7481 3141.9091 4098.7011 3147.8621 4210.1381 3147.8621 4214.5001 3143.5001" stroke-width="1"  stroke-linecap="round" fill="none" layerid="1" net="U2_7" id="gge1324" locked="0" /><polyline points="4160.9481 3094.6301 4160.9481 3095.7421 4173.0441 3107.8381 4198.8381 3107.8381 4204.5001 3113.5001" stroke-width="1"  stroke-linecap="round" fill="none" layerid="1" net="D1" id="gge1297" locked="0" /><polyline points="4156.5001 3094.6301 4160.9481 3094.6301" stroke-width="1"  stroke-linecap="round" fill="none" layerid="1" net="D1" id="gge1294" locked="0" /><polyline points="4224.5001 3143.5001 4249.5001 3143.5001 4259.0001 3153.0001" stroke-width="1"  stroke-linecap="round" fill="none" layerid="1" net="GND" id="gge1288" locked="0" /><polyline points="4226.5001 3094.6301 4222.0481 3090.1781 4145.8221 3090.1781 4130.1891 3105.8111" stroke-width="1"  stroke-linecap="round" fill="none" layerid="1" net="GND" id="gge1282" locked="0" /><polyline points="4100.1891 3075.8111 4112.6301 3063.3701 4156.5001 3063.3701" stroke-width="1"  stroke-linecap="round" fill="none" layerid="1" net="+5V" id="gge1276" locked="0" /><polyline points="4156.5001 3063.3701 4161.1921 3058.6781 4211.8081 3058.6781 4216.5001 3063.3701" stroke-width="1"  stroke-linecap="round" fill="none" layerid="1" net="+5V" id="gge1273" locked="0" /><polyline points="4194.5001 3143.5001 4204.5001 3143.5001" stroke-width="1"  stroke-linecap="round" fill="none" layerid="1" net="CE" id="gge1267" locked="0" /><polyline points="4204.5001 3143.5001 4235.0001 3113.0001 4259.0001 3113.0001" stroke-width="1"  stroke-linecap="round" fill="none" layerid="1" net="CE" id="gge1264" locked="0" /><polyline points="4186.5001 3063.3701 4196.5001 3063.3701" stroke-width="1"  stroke-linecap="round" fill="none" layerid="1" net="CE" id="gge1261" locked="0" /><polyline points="4176.5001 3063.3701 4200.1891 3087.0591 4253.0591 3087.0591 4259.0001 3093.0001" stroke-width="1"  stroke-linecap="round" fill="none" layerid="1" net="DO" id="gge1255" locked="0" /><polyline points="4206.5001 3063.3701 4226.1301 3083.0001 4259.0001 3083.0001" stroke-width="1"  stroke-linecap="round" fill="none" layerid="1" net="CLK" id="gge1252" locked="0" /><g c_partid="part_pad" c_etype="pinpart" c_origin="4259,3083" layerid="11" number="1" net="CLK" plated ="Y"  id="gge63" locked="0" c_rotation="270" c_width="5.9055" c_height="5.9055" title="CLK" c_shape="RECT" pasteexpansion="0" solderexpansion="0.2"><polygon  c_etype="pad_shell" points="4261.9528 3080.0473 4261.9528 3085.9528 4256.0472 3085.9528 4256.0472 3080.0473" layerid="11" stroke-width="0" /><circle c_etype="pad_hole" cx="4259" cy="3083" r="1.9685" layerid="11" stroke-width="0"/></g><g c_partid="part_pad" c_etype="pinpart" c_origin="4259,3093" layerid="11" number="2" net="DO" plated ="Y"  id="gge78" locked="0" c_rotation="270" c_width="5.9055" c_height="5.9055" title="DO" c_shape="ELLIPSE" pasteexpansion="0" solderexpansion="0.2"><ellipse c_etype="pad_shell" cx="4259" cy="3093" rx="2.95275" ry="2.95275" layerid="11" stroke-width="0"/><circle c_etype="pad_hole" cx="4259" cy="3093" r="1.9685" layerid="11" stroke-width="0"/></g><g c_partid="part_pad" c_etype="pinpart" c_origin="4259,3103" layerid="11" number="3" net="" plated ="Y"  id="gge93" locked="0" c_rotation="270" c_width="5.9055" c_height="5.9055" title="" c_shape="ELLIPSE" pasteexpansion="0" solderexpansion="0.2"><ellipse c_etype="pad_shell" cx="4259" cy="3103" rx="2.95275" ry="2.95275" layerid="11" stroke-width="0"/><circle c_etype="pad_hole" cx="4259" cy="3103" r="1.9685" layerid="11" stroke-width="0"/></g><g c_partid="part_pad" c_etype="pinpart" c_origin="4259,3113" layerid="11" number="4" net="CE" plated ="Y"  id="gge108" locked="0" c_rotation="270" c_width="5.9055" c_height="5.9055" title="CE" c_shape="ELLIPSE" pasteexpansion="0" solderexpansion="0.2"><ellipse c_etype="pad_shell" cx="4259" cy="3113" rx="2.95275" ry="2.95275" layerid="11" stroke-width="0"/><circle c_etype="pad_hole" cx="4259" cy="3113" r="1.9685" layerid="11" stroke-width="0"/></g><g c_partid="part_pad" c_etype="pinpart" c_origin="4259,3123" layerid="11" number="5" net="" plated ="Y"  id="gge123" locked="0" c_rotation="270" c_width="5.9055" c_height="5.9055" title="" c_shape="ELLIPSE" pasteexpansion="0" solderexpansion="0.2"><ellipse c_etype="pad_shell" cx="4259" cy="3123" rx="2.95275" ry="2.95275" layerid="11" stroke-width="0"/><circle c_etype="pad_hole" cx="4259" cy="3123" r="1.9685" layerid="11" stroke-width="0"/></g><g c_partid="part_pad" c_etype="pinpart" c_origin="4259,3133" layerid="11" number="6" net="" plated ="Y"  id="gge138" locked="0" c_rotation="270" c_width="5.9055" c_height="5.9055" title="" c_shape="ELLIPSE" pasteexpansion="0" solderexpansion="0.2"><ellipse c_etype="pad_shell" cx="4259" cy="3133" rx="2.95275" ry="2.95275" layerid="11" stroke-width="0"/><circle c_etype="pad_hole" cx="4259" cy="3133" r="1.9685" layerid="11" stroke-width="0"/></g><g c_partid="part_pad" c_etype="pinpart" c_origin="4259,3143" layerid="11" number="7" net="+5V" plated ="Y"  id="gge153" locked="0" c_rotation="270" c_width="5.9055" c_height="5.9055" title="+5V" c_shape="ELLIPSE" pasteexpansion="0" solderexpansion="0.2"><ellipse c_etype="pad_shell" cx="4259" cy="3143" rx="2.95275" ry="2.95275" layerid="11" stroke-width="0"/><circle c_etype="pad_hole" cx="4259" cy="3143" r="1.9685" layerid="11" stroke-width="0"/></g><g c_partid="part_pad" c_etype="pinpart" c_origin="4259,3153" layerid="11" number="8" net="GND" plated ="Y"  id="gge168" locked="0" c_rotation="270" c_width="5.9055" c_height="5.9055" title="GND" c_shape="ELLIPSE" pasteexpansion="0" solderexpansion="0.2"><ellipse c_etype="pad_shell" cx="4259" cy="3153" rx="2.95275" ry="2.95275" layerid="11" stroke-width="0"/><circle c_etype="pad_hole" cx="4259" cy="3153" r="1.9685" layerid="11" stroke-width="0"/></g><g c_partid="part_pad" c_etype="pinpart" c_origin="4156.5,3094.63" layerid="11" number="1" net="D1" plated ="Y"  id="gge321" locked="0" c_rotation="90" c_width="6.6929" c_height="6.6929" title="D1" c_shape="RECT" pasteexpansion="0" solderexpansion="0.2"><polygon  c_etype="pad_shell" points="4153.1536 3097.9766 4153.1536 3091.2837 4159.8465 3091.2837 4159.8465 3097.9766" layerid="11" stroke-width="0" /><circle c_etype="pad_hole" cx="4156.5" cy="3094.6301" r="1.9685" layerid="11" stroke-width="0"/></g><g c_partid="part_pad" c_etype="pinpart" c_origin="4166.5,3094.63" layerid="11" number="2" net="D2" plated ="Y"  id="gge336" locked="0" c_rotation="90" c_width="6.6929" c_height="6.6929" title="D2" c_shape="ELLIPSE" pasteexpansion="0" solderexpansion="0.2"><ellipse c_etype="pad_shell" cx="4166.5" cy="3094.63" rx="3.34645" ry="3.34645" layerid="11" stroke-width="0"/><circle c_etype="pad_hole" cx="4166.5" cy="3094.6311" r="1.9685" layerid="11" stroke-width="0"/></g><g c_partid="part_pad" c_etype="pinpart" c_origin="4216.5,3094.63" layerid="11" number="7" net="D7" plated ="Y"  id="gge351" locked="0" c_rotation="90" c_width="6.6929" c_height="6.6929" title="D7" c_shape="ELLIPSE" pasteexpansion="0" solderexpansion="0.2"><ellipse c_etype="pad_shell" cx="4216.5" cy="3094.63" rx="3.34645" ry="3.34645" layerid="11" stroke-width="0"/><circle c_etype="pad_hole" cx="4216.5" cy="3094.6311" r="1.9685" layerid="11" stroke-width="0"/></g><g c_partid="part_pad" c_etype="pinpart" c_origin="4226.5,3094.63" layerid="11" number="8" net="GND" plated ="Y"  id="gge366" locked="0" c_rotation="90" c_width="6.6929" c_height="6.6929" title="GND" c_shape="ELLIPSE" pasteexpansion="0" solderexpansion="0.2"><ellipse c_etype="pad_shell" cx="4226.5" cy="3094.63" rx="3.34645" ry="3.34645" layerid="11" stroke-width="0"/><circle c_etype="pad_hole" cx="4226.5" cy="3094.6311" r="1.9685" layerid="11" stroke-width="0"/></g><g c_partid="part_pad" c_etype="pinpart" c_origin="4176.5,3094.63" layerid="11" number="3" net="D3" plated ="Y"  id="gge381" locked="0" c_rotation="90" c_width="6.6929" c_height="6.6929" title="D3" c_shape="ELLIPSE" pasteexpansion="0" solderexpansion="0.2"><ellipse c_etype="pad_shell" cx="4176.5" cy="3094.63" rx="3.34645" ry="3.34645" layerid="11" stroke-width="0"/><circle c_etype="pad_hole" cx="4176.5" cy="3094.6311" r="1.9685" layerid="11" stroke-width="0"/></g><g c_partid="part_pad" c_etype="pinpart" c_origin="4186.5,3094.63" layerid="11" number="4" net="D4" plated ="Y"  id="gge396" locked="0" c_rotation="90" c_width="6.6929" c_height="6.6929" title="D4" c_shape="ELLIPSE" pasteexpansion="0" solderexpansion="0.2"><ellipse c_etype="pad_shell" cx="4186.5" cy="3094.63" rx="3.34645" ry="3.34645" layerid="11" stroke-width="0"/><circle c_etype="pad_hole" cx="4186.5" cy="3094.6311" r="1.9685" layerid="11" stroke-width="0"/></g><g c_partid="part_pad" c_etype="pinpart" c_origin="4206.5,3094.63" layerid="11" number="6" net="D6" plated ="Y"  id="gge411" locked="0" c_rotation="90" c_width="6.6929" c_height="6.6929" title="D6" c_shape="ELLIPSE" pasteexpansion="0" solderexpansion="0.2"><ellipse c_etype="pad_shell" cx="4206.5" cy="3094.63" rx="3.34645" ry="3.34645" layerid="11" stroke-width="0"/><circle c_etype="pad_hole" cx="4206.5" cy="3094.6311" r="1.9685" layerid="11" stroke-width="0"/></g><g c_partid="part_pad" c_etype="pinpart" c_origin="4196.5,3094.63" layerid="11" number="5" net="D5" plated ="Y"  id="gge426" locked="0" c_rotation="90" c_width="6.6929" c_height="6.6929" title="D5" c_shape="ELLIPSE" pasteexpansion="0" solderexpansion="0.2"><ellipse c_etype="pad_shell" cx="4196.5" cy="3094.63" rx="3.34645" ry="3.34645" layerid="11" stroke-width="0"/><circle c_etype="pad_hole" cx="4196.5" cy="3094.6311" r="1.9685" layerid="11" stroke-width="0"/></g><g c_partid="part_pad" c_etype="pinpart" c_origin="4226.5,3063.37" layerid="11" number="9" net="" plated ="Y"  id="gge441" locked="0" c_rotation="90" c_width="6.6929" c_height="6.6929" title="" c_shape="ELLIPSE" pasteexpansion="0" solderexpansion="0.2"><ellipse c_etype="pad_shell" cx="4226.5" cy="3063.37" rx="3.34645" ry="3.34645" layerid="11" stroke-width="0"/><circle c_etype="pad_hole" cx="4226.5" cy="3063.3697" r="1.9685" layerid="11" stroke-width="0"/></g><g c_partid="part_pad" c_etype="pinpart" c_origin="4216.5,3063.37" layerid="11" number="10" net="+5V" plated ="Y"  id="gge456" locked="0" c_rotation="90" c_width="6.6929" c_height="6.6929" title="+5V" c_shape="ELLIPSE" pasteexpansion="0" solderexpansion="0.2"><ellipse c_etype="pad_shell" cx="4216.5" cy="3063.37" rx="3.34645" ry="3.34645" layerid="11" stroke-width="0"/><circle c_etype="pad_hole" cx="4216.5" cy="3063.3697" r="1.9685" layerid="11" stroke-width="0"/></g><g c_partid="part_pad" c_etype="pinpart" c_origin="4206.5,3063.37" layerid="11" number="11" net="CLK" plated ="Y"  id="gge471" locked="0" c_rotation="90" c_width="6.6929" c_height="6.6929" title="CLK" c_shape="ELLIPSE" pasteexpansion="0" solderexpansion="0.2"><ellipse c_etype="pad_shell" cx="4206.5" cy="3063.37" rx="3.34645" ry="3.34645" layerid="11" stroke-width="0"/><circle c_etype="pad_hole" cx="4206.5" cy="3063.3697" r="1.9685" layerid="11" stroke-width="0"/></g><g c_partid="part_pad" c_etype="pinpart" c_origin="4196.5,3063.37" layerid="11" number="12" net="CE" plated ="Y"  id="gge486" locked="0" c_rotation="90" c_width="6.6929" c_height="6.6929" title="CE" c_shape="ELLIPSE" pasteexpansion="0" solderexpansion="0.2"><ellipse c_etype="pad_shell" cx="4196.5" cy="3063.37" rx="3.34645" ry="3.34645" layerid="11" stroke-width="0"/><circle c_etype="pad_hole" cx="4196.5" cy="3063.3697" r="1.9685" layerid="11" stroke-width="0"/></g><g c_partid="part_pad" c_etype="pinpart" c_origin="4186.5,3063.37" layerid="11" number="13" net="CE" plated ="Y"  id="gge501" locked="0" c_rotation="90" c_width="6.6929" c_height="6.6929" title="CE" c_shape="ELLIPSE" pasteexpansion="0" solderexpansion="0.2"><ellipse c_etype="pad_shell" cx="4186.5" cy="3063.37" rx="3.34645" ry="3.34645" layerid="11" stroke-width="0"/><circle c_etype="pad_hole" cx="4186.5" cy="3063.3697" r="1.9685" layerid="11" stroke-width="0"/></g><g c_partid="part_pad" c_etype="pinpart" c_origin="4176.5,3063.37" layerid="11" number="14" net="DO" plated ="Y"  id="gge516" locked="0" c_rotation="90" c_width="6.6929" c_height="6.6929" title="DO" c_shape="ELLIPSE" pasteexpansion="0" solderexpansion="0.2"><ellipse c_etype="pad_shell" cx="4176.5" cy="3063.37" rx="3.34645" ry="3.34645" layerid="11" stroke-width="0"/><circle c_etype="pad_hole" cx="4176.5" cy="3063.3697" r="1.9685" layerid="11" stroke-width="0"/></g><g c_partid="part_pad" c_etype="pinpart" c_origin="4166.5,3063.37" layerid="11" number="15" net="D0" plated ="Y"  id="gge531" locked="0" c_rotation="90" c_width="6.6929" c_height="6.6929" title="D0" c_shape="ELLIPSE" pasteexpansion="0" solderexpansion="0.2"><ellipse c_etype="pad_shell" cx="4166.5" cy="3063.37" rx="3.34645" ry="3.34645" layerid="11" stroke-width="0"/><circle c_etype="pad_hole" cx="4166.5" cy="3063.3697" r="1.9685" layerid="11" stroke-width="0"/></g><g c_partid="part_pad" c_etype="pinpart" c_origin="4156.5,3063.37" layerid="11" number="16" net="+5V" plated ="Y"  id="gge546" locked="0" c_rotation="90" c_width="6.6929" c_height="6.6929" title="+5V" c_shape="ELLIPSE" pasteexpansion="0" solderexpansion="0.2"><ellipse c_etype="pad_shell" cx="4156.5" cy="3063.37" rx="3.34645" ry="3.34645" layerid="11" stroke-width="0"/><circle c_etype="pad_hole" cx="4156.5" cy="3063.3697" r="1.9685" layerid="11" stroke-width="0"/></g><g c_partid="part_pad" c_etype="pinpart" c_origin="4154.5,3143.5" layerid="11" number="1" net="D5" plated ="Y"  id="gge594" locked="0" c_rotation="0" c_width="6" c_height="6" title="D5" c_shape="RECT" pasteexpansion="0" solderexpansion="0.2"><polygon  c_etype="pad_shell" points="4151.5 3140.5 4157.5 3140.5 4157.5 3146.5 4151.5 3146.5" layerid="11" stroke-width="0" /><circle c_etype="pad_hole" cx="4154.5" cy="3143.5" r="1.8" layerid="11" stroke-width="0"/></g><g c_partid="part_pad" c_etype="pinpart" c_origin="4164.5,3143.5" layerid="11" number="2" net="D6" plated ="Y"  id="gge609" locked="0" c_rotation="0" c_width="6" c_height="6" title="D6" c_shape="ELLIPSE" pasteexpansion="0" solderexpansion="0.2"><ellipse c_etype="pad_shell" cx="4164.5" cy="3143.5" rx="3" ry="3" layerid="11" stroke-width="0"/><circle c_etype="pad_hole" cx="4164.5" cy="3143.5" r="1.8" layerid="11" stroke-width="0"/></g><g c_partid="part_pad" c_etype="pinpart" c_origin="4174.5,3143.5" layerid="11" number="3" net="D7" plated ="Y"  id="gge624" locked="0" c_rotation="0" c_width="6" c_height="6" title="D7" c_shape="ELLIPSE" pasteexpansion="0" solderexpansion="0.2"><ellipse c_etype="pad_shell" cx="4174.5" cy="3143.5" rx="3" ry="3" layerid="11" stroke-width="0"/><circle c_etype="pad_hole" cx="4174.5" cy="3143.5" r="1.8" layerid="11" stroke-width="0"/></g><g c_partid="part_pad" c_etype="pinpart" c_origin="4184.5,3143.5" layerid="11" number="4" net="" plated ="Y"  id="gge639" locked="0" c_rotation="0" c_width="6" c_height="6" title="" c_shape="ELLIPSE" pasteexpansion="0" solderexpansion="0.2"><ellipse c_etype="pad_shell" cx="4184.5" cy="3143.5" rx="3" ry="3" layerid="11" stroke-width="0"/><circle c_etype="pad_hole" cx="4184.5" cy="3143.5" r="1.8" layerid="11" stroke-width="0"/></g><g c_partid="part_pad" c_etype="pinpart" c_origin="4194.5,3143.5" layerid="11" number="5" net="CE" plated ="Y"  id="gge654" locked="0" c_rotation="0" c_width="6" c_height="6" title="CE" c_shape="ELLIPSE" pasteexpansion="0" solderexpansion="0.2"><ellipse c_etype="pad_shell" cx="4194.5" cy="3143.5" rx="3" ry="3" layerid="11" stroke-width="0"/><circle c_etype="pad_hole" cx="4194.5" cy="3143.5" r="1.8" layerid="11" stroke-width="0"/></g><g c_partid="part_pad" c_etype="pinpart" c_origin="4204.5,3143.5" layerid="11" number="6" net="CE" plated ="Y"  id="gge669" locked="0" c_rotation="0" c_width="6" c_height="6" title="CE" c_shape="ELLIPSE" pasteexpansion="0" solderexpansion="0.2"><ellipse c_etype="pad_shell" cx="4204.5" cy="3143.5" rx="3" ry="3" layerid="11" stroke-width="0"/><circle c_etype="pad_hole" cx="4204.5" cy="3143.5" r="1.8" layerid="11" stroke-width="0"/></g><g c_partid="part_pad" c_etype="pinpart" c_origin="4214.5,3143.5" layerid="11" number="7" net="U2_7" plated ="Y"  id="gge684" locked="0" c_rotation="0" c_width="6" c_height="6" title="U2_7" c_shape="ELLIPSE" pasteexpansion="0" solderexpansion="0.2"><ellipse c_etype="pad_shell" cx="4214.5" cy="3143.5" rx="3" ry="3" layerid="11" stroke-width="0"/><circle c_etype="pad_hole" cx="4214.5" cy="3143.5" r="1.8" layerid="11" stroke-width="0"/></g><g c_partid="part_pad" c_etype="pinpart" c_origin="4224.5,3143.5" layerid="11" number="8" net="GND" plated ="Y"  id="gge699" locked="0" c_rotation="0" c_width="6" c_height="6" title="GND" c_shape="ELLIPSE" pasteexpansion="0" solderexpansion="0.2"><ellipse c_etype="pad_shell" cx="4224.5" cy="3143.5" rx="3" ry="3" layerid="11" stroke-width="0"/><circle c_etype="pad_hole" cx="4224.5" cy="3143.5" r="1.8" layerid="11" stroke-width="0"/></g><g c_partid="part_pad" c_etype="pinpart" c_origin="4154.5,3113.5" layerid="11" number="16" net="+5V" plated ="Y"  id="gge714" locked="0" c_rotation="0" c_width="6" c_height="6" title="+5V" c_shape="ELLIPSE" pasteexpansion="0" solderexpansion="0.2"><ellipse c_etype="pad_shell" cx="4154.5" cy="3113.5" rx="3" ry="3" layerid="11" stroke-width="0"/><circle c_etype="pad_hole" cx="4154.5" cy="3113.5" r="1.8" layerid="11" stroke-width="0"/></g><g c_partid="part_pad" c_etype="pinpart" c_origin="4164.5,3113.5" layerid="11" number="15" net="D4" plated ="Y"  id="gge729" locked="0" c_rotation="0" c_width="6" c_height="6" title="D4" c_shape="ELLIPSE" pasteexpansion="0" solderexpansion="0.2"><ellipse c_etype="pad_shell" cx="4164.5" cy="3113.5" rx="3" ry="3" layerid="11" stroke-width="0"/><circle c_etype="pad_hole" cx="4164.5" cy="3113.5" r="1.8" layerid="11" stroke-width="0"/></g><g c_partid="part_pad" c_etype="pinpart" c_origin="4174.5,3113.5" layerid="11" number="14" net="U2_14" plated ="Y"  id="gge744" locked="0" c_rotation="0" c_width="6" c_height="6" title="U2_14" c_shape="ELLIPSE" pasteexpansion="0" solderexpansion="0.2"><ellipse c_etype="pad_shell" cx="4174.5" cy="3113.5" rx="3" ry="3" layerid="11" stroke-width="0"/><circle c_etype="pad_hole" cx="4174.5" cy="3113.5" r="1.8" layerid="11" stroke-width="0"/></g><g c_partid="part_pad" c_etype="pinpart" c_origin="4184.5,3113.5" layerid="11" number="13" net="D3" plated ="Y"  id="gge759" locked="0" c_rotation="0" c_width="6" c_height="6" title="D3" c_shape="ELLIPSE" pasteexpansion="0" solderexpansion="0.2"><ellipse c_etype="pad_shell" cx="4184.5" cy="3113.5" rx="3" ry="3" layerid="11" stroke-width="0"/><circle c_etype="pad_hole" cx="4184.5" cy="3113.5" r="1.8" layerid="11" stroke-width="0"/></g><g c_partid="part_pad" c_etype="pinpart" c_origin="4194.5,3113.5" layerid="11" number="12" net="D2" plated ="Y"  id="gge774" locked="0" c_rotation="0" c_width="6" c_height="6" title="D2" c_shape="ELLIPSE" pasteexpansion="0" solderexpansion="0.2"><ellipse c_etype="pad_shell" cx="4194.5" cy="3113.5" rx="3" ry="3" layerid="11" stroke-width="0"/><circle c_etype="pad_hole" cx="4194.5" cy="3113.5" r="1.8" layerid="11" stroke-width="0"/></g><g c_partid="part_pad" c_etype="pinpart" c_origin="4204.5,3113.5" layerid="11" number="11" net="D1" plated ="Y"  id="gge789" locked="0" c_rotation="0" c_width="6" c_height="6" title="D1" c_shape="ELLIPSE" pasteexpansion="0" solderexpansion="0.2"><ellipse c_etype="pad_shell" cx="4204.5" cy="3113.5" rx="3" ry="3" layerid="11" stroke-width="0"/><circle c_etype="pad_hole" cx="4204.5" cy="3113.5" r="1.8" layerid="11" stroke-width="0"/></g><g c_partid="part_pad" c_etype="pinpart" c_origin="4214.5,3113.5" layerid="11" number="10" net="D0" plated ="Y"  id="gge804" locked="0" c_rotation="0" c_width="6" c_height="6" title="D0" c_shape="ELLIPSE" pasteexpansion="0" solderexpansion="0.2"><ellipse c_etype="pad_shell" cx="4214.5" cy="3113.5" rx="3" ry="3" layerid="11" stroke-width="0"/><circle c_etype="pad_hole" cx="4214.5" cy="3113.5" r="1.8" layerid="11" stroke-width="0"/></g><g c_partid="part_pad" c_etype="pinpart" c_origin="4224.5,3113.5" layerid="11" number="9" net="" plated ="Y"  id="gge819" locked="0" c_rotation="0" c_width="6" c_height="6" title="" c_shape="ELLIPSE" pasteexpansion="0" solderexpansion="0.2"><ellipse c_etype="pad_shell" cx="4224.5" cy="3113.5" rx="3" ry="3" layerid="11" stroke-width="0"/><circle c_etype="pad_hole" cx="4224.5" cy="3113.5" r="1.8" layerid="11" stroke-width="0"/></g><g c_partid="part_pad" c_etype="pinpart" c_origin="4084.874,3149.193" layerid="11" number="RING1" net="GND" plated ="Y"  id="gge873" locked="0" c_rotation="0" c_width="7.6" c_height="7.6" title="GND" c_shape="ELLIPSE" pasteexpansion="0" solderexpansion="0.2"><ellipse c_etype="pad_shell" cx="4084.874" cy="3149.193" rx="3.8" ry="3.8" layerid="11" stroke-width="0"/><polyline c_etype="pad_hole" points="4084.8735 3149.193 4084.8745 3149.193" layerid="11" stroke-width="4.33"></polyline></g><g c_partid="part_pad" c_etype="pinpart" c_origin="4084.874,3134.626" layerid="11" number="RING2" net="" plated ="Y"  id="gge888" locked="0" c_rotation="0" c_width="7.6" c_height="7.6" title="" c_shape="ELLIPSE" pasteexpansion="0" solderexpansion="0.2"><ellipse c_etype="pad_shell" cx="4084.874" cy="3134.626" rx="3.8" ry="3.8" layerid="11" stroke-width="0"/><polyline c_etype="pad_hole" points="4084.8735 3134.626 4084.8745 3134.626" layerid="11" stroke-width="4.33"></polyline></g><g c_partid="part_pad" c_etype="pinpart" c_origin="4065.583,3141.909" layerid="11" number="SHIELD" net="U2_7" plated ="Y"  id="gge903" locked="0" c_rotation="0" c_width="7.6" c_height="7.6" title="U2_7" c_shape="ELLIPSE" pasteexpansion="0" solderexpansion="0.2"><ellipse c_etype="pad_shell" cx="4065.583" cy="3141.909" rx="3.8" ry="3.8" layerid="11" stroke-width="0"/><polyline c_etype="pad_hole" points="4065.5825 3141.909 4065.5835 3141.909" layerid="11" stroke-width="3.936"></polyline></g><g c_partid="part_pad" c_etype="pinpart" c_origin="4092.748,3141.909" layerid="11" number="TIP" net="U2_7" plated ="Y"  id="gge918" locked="0" c_rotation="0" c_width="7.6" c_height="7.6" title="U2_7" c_shape="ELLIPSE" pasteexpansion="0" solderexpansion="0.2"><ellipse c_etype="pad_shell" cx="4092.748" cy="3141.909" rx="3.8" ry="3.8" layerid="11" stroke-width="0"/><polyline c_etype="pad_hole" points="4092.7475 3141.909 4092.7485 3141.909" layerid="11" stroke-width="4.33"></polyline></g><g c_partid="part_pad" c_etype="pinpart" c_origin="4100.189,3105.811" layerid="11" number="1" net="" plated ="Y"  id="gge960" locked="0" c_rotation="0" c_width="4.693" c_height="4.693" title="" c_shape="ELLIPSE" pasteexpansion="0" solderexpansion="0.2"><ellipse c_etype="pad_shell" cx="4100.189" cy="3105.811" rx="2.3465" ry="2.3465" layerid="11" stroke-width="0"/><polyline c_etype="pad_hole" points="4100.1895 3105.811 4100.1885 3105.811" layerid="11" stroke-width="2.56"></polyline></g><g c_partid="part_pad" c_etype="pinpart" c_origin="4130.189,3105.811" layerid="11" number="4" net="GND" plated ="Y"  id="gge975" locked="0" c_rotation="0" c_width="4.693" c_height="4.693" title="GND" c_shape="ELLIPSE" pasteexpansion="0" solderexpansion="0.2"><ellipse c_etype="pad_shell" cx="4130.189" cy="3105.811" rx="2.3465" ry="2.3465" layerid="11" stroke-width="0"/><polyline c_etype="pad_hole" points="4130.1895 3105.811 4130.1885 3105.811" layerid="11" stroke-width="2.56"></polyline></g><g c_partid="part_pad" c_etype="pinpart" c_origin="4130.189,3075.811" layerid="11" number="5" net="U2_14" plated ="Y"  id="gge990" locked="0" c_rotation="0" c_width="4.693" c_height="4.693" title="U2_14" c_shape="ELLIPSE" pasteexpansion="0" solderexpansion="0.2"><ellipse c_etype="pad_shell" cx="4130.189" cy="3075.811" rx="2.3465" ry="2.3465" layerid="11" stroke-width="0"/><polyline c_etype="pad_hole" points="4130.1895 3075.811 4130.1885 3075.811" layerid="11" stroke-width="2.56"></polyline></g><g c_partid="part_pad" c_etype="pinpart" c_origin="4100.189,3075.811" layerid="11" number="8" net="+5V" plated ="Y"  id="gge1005" locked="0" c_rotation="0" c_width="4.693" c_height="4.693" title="+5V" c_shape="ELLIPSE" pasteexpansion="0" solderexpansion="0.2"><ellipse c_etype="pad_shell" cx="4100.189" cy="3075.811" rx="2.3465" ry="2.3465" layerid="11" stroke-width="0"/><polyline c_etype="pad_hole" points="4100.1895 3075.811 4100.1885 3075.811" layerid="11" stroke-width="2.56"></polyline></g><g c_partid="part_hole" c_etype="pinpart" c_shapetype="group" c_origin="4250.5,3063" layerid="11" id="gge1113" locked="0" ><circle cx="4250.5" cy="3063" r="8.2677"  stroke-width="1" fill-opacity="0" /></g><g c_partid="part_hole" c_etype="pinpart" c_shapetype="group" c_origin="4250.5,3178.5" layerid="11" id="gge1143" locked="0" ><circle cx="4250.5" cy="3178.5" r="8.2677"  stroke-width="1" fill-opacity="0" /></g><g c_partid="part_hole" c_etype="pinpart" c_shapetype="group" c_origin="4063.5,3178.5" layerid="11" id="gge1158" locked="0" ><circle cx="4063.5" cy="3178.5" r="8.2677"  stroke-width="1" fill-opacity="0" /></g><g c_partid="part_hole" c_etype="pinpart" c_shapetype="group" c_origin="4063.5,3065" layerid="11" id="gge1173" locked="0" ><circle cx="4063.5" cy="3065" r="8.2677"  stroke-width="1" fill-opacity="0" /></g><g c_partid="part_hole" c_etype="pinpart" c_shapetype="group" c_origin="4075.032,3141.909" layerid="11" id="gge861" locked="0" ><circle cx="4075.032" cy="3141.909" r="2.362"  stroke-width="1" fill-opacity="0" /></g><polyline points="4264 3157.9999 4254 3157.9999 4254 3078.0001 4264 3078.0001 4264 3157.9999" stroke-width="1"  stroke-linecap="round" fill="none" layerid="3" net="" id="gge51" locked="0" /><polyline points="4264 3088.0926 4254 3088.0926" stroke-width="1"  stroke-linecap="round" fill="none" layerid="3" net="" id="gge54" locked="0" /><polyline points="4153.508 3066.402 4229.492 3066.402 4229.492 3091.599 4153.508 3091.599 4153.508 3066.402" stroke-width="0.5906"  stroke-linecap="round" fill="none" layerid="3" net="" id="gge216" locked="0" /><polyline points="4149.5 3118.5 4229.5 3118.5 4229.5 3138.5 4149.5 3138.5 4149.5 3131.5" stroke-width="1"  stroke-linecap="round" fill="none" layerid="3" net="S$137" id="gge579" locked="0" /><polyline points="4149.5 3118.5 4149.5 3125.5" stroke-width="1"  stroke-linecap="round" fill="none" layerid="3" net="S$141" id="gge582" locked="0" /><polyline points="4092.354 3132.067 4091.567 3132.067 4062.039 3132.067 4062.039 3135.217 4062.039 3149.39 4062.039 3152.146 4093.142 3152.146 4093.142 3147.815" stroke-width="0.5"  stroke-linecap="round" fill="none" layerid="3" net="" id="gge852" locked="0" /><polyline points="4093.142 3136.004 4093.142 3132.067 4091.567 3132.067" stroke-width="0.5"  stroke-linecap="round" fill="none" layerid="3" net="" id="gge855" locked="0" /><polyline points="4062.039 3135.217 4050.228 3135.217 4050.228 3149.39 4062.039 3149.39" stroke-width="0.5"  stroke-linecap="round" fill="none" layerid="3" net="" id="gge858" locked="0" /><polyline points="4089.992 3065.614 4140.386 3065.614 4140.386 3116.008 4089.992 3116.008 4089.992 3065.614" stroke-width="0.394"  stroke-linecap="round" fill="none" layerid="3" net="" id="gge954" locked="0" /><g c_partid="part_pcbtext" c_etype="pinpart" c_origin="4232,3088" c_rotation="0" c_mirror="0" id="gge1339" locked="0" layerid="3" c_shapetype="group" ><path c_fontsize="8" c_fontfamily="" c_text="CLK" d="M 4237.45 3081.75 L 4237.09 3081.02 L 4236.36 3080.29 L 4235.64 3079.93 L 4234.18 3079.93 L 4233.45 3080.29 L 4232.73 3081.02 L 4232.36 3081.75 L 4232 3082.84 L 4232 3084.65 L 4232.36 3085.75 L 4232.73 3086.47 L 4233.45 3087.2 L 4234.18 3087.56 L 4235.64 3087.56 L 4236.36 3087.2 L 4237.09 3086.47 L 4237.45 3085.75 M 4239.85 3079.93 L 4239.85 3087.56 M 4239.85 3087.56 L 4244.22 3087.56 M 4246.62 3079.93 L 4246.62 3087.56 M 4251.71 3079.93 L 4246.62 3085.02 M 4248.44 3083.2 L 4251.71 3087.56" fill="none"  stroke-width="0.8"  /></g><g c_partid="part_pcbtext" c_etype="pinpart" c_origin="4232.5,3098.5" c_rotation="0" c_mirror="0" id="gge1360" locked="0" layerid="3" c_shapetype="group" ><path c_fontsize="8" c_fontfamily="" c_text="DO" d="M 4232.5 3090.43L4232.5 3098.06 M 4232.5 3090.43L4235.05 3090.43 L4236.14 3090.79 L4236.86 3091.52 L4237.23 3092.25 L4237.59 3093.34 L4237.59 3095.15 L4237.23 3096.25 L4236.86 3096.97 L4236.14 3097.7 L4235.05 3098.06 L4232.5 3098.06 M 4242.17 3090.43L4241.45 3090.79 L4240.72 3091.52 L4240.35 3092.25 L4239.99 3093.34 L4239.99 3095.15 L4240.35 3096.25 L4240.72 3096.97 L4241.45 3097.7 L4242.17 3098.06 L4243.63 3098.06 L4244.35 3097.7 L4245.08 3096.97 L4245.45 3096.25 L4245.81 3095.15 L4245.81 3093.34 L4245.45 3092.25 L4245.08 3091.52 L4244.35 3090.79 L4243.63 3090.43 L4242.17 3090.43 " fill="none"  stroke-width="0.8"  /></g><g c_partid="part_pcbtext" c_etype="pinpart" c_origin="4232.5,3107.5" c_rotation="0" c_mirror="0" id="gge1372" locked="0" layerid="3" c_shapetype="group" ><path c_fontsize="8" c_fontfamily="" c_text="DI" d="M 4232.5 3099.43L4232.5 3107.06 M 4232.5 3099.43L4235.05 3099.43 L4236.14 3099.79 L4236.86 3100.52 L4237.23 3101.25 L4237.59 3102.34 L4237.59 3104.15 L4237.23 3105.25 L4236.86 3105.97 L4236.14 3106.7 L4235.05 3107.06 L4232.5 3107.06 M 4239.99 3099.43L4239.99 3107.06 " fill="none"  stroke-width="0.8"  /></g><g c_partid="part_pcbtext" c_etype="pinpart" c_origin="4233,3117" c_rotation="0" c_mirror="0" id="gge1384" locked="0" layerid="3" c_shapetype="group" ><path c_fontsize="8" c_fontfamily="" c_text="CE" d="M 4238.45 3110.75L4238.09 3110.02 L4237.36 3109.29 L4236.64 3108.93 L4235.18 3108.93 L4234.45 3109.29 L4233.73 3110.02 L4233.36 3110.75 L4233 3111.84 L4233 3113.65 L4233.36 3114.75 L4233.73 3115.47 L4234.45 3116.2 L4235.18 3116.56 L4236.64 3116.56 L4237.36 3116.2 L4238.09 3115.47 L4238.45 3114.75 M 4240.85 3108.93L4240.85 3116.56 M 4240.85 3108.93L4245.58 3108.93 M 4240.85 3112.56L4243.76 3112.56 M 4240.85 3116.56L4245.58 3116.56 " fill="none"  stroke-width="0.8"  /></g><g c_partid="part_pcbtext" c_etype="pinpart" c_origin="4234,3146.5" c_rotation="0" c_mirror="0" id="gge1420" locked="0" layerid="3" c_shapetype="group" ><path c_fontsize="8" c_fontfamily="" c_text="+5v" d="M 4237.27 3139.52L4237.27 3146.06 M 4234 3142.79L4240.55 3142.79 M 4247.31 3138.43L4243.67 3138.43 L4243.31 3141.7 L4243.67 3141.34 L4244.76 3140.97 L4245.85 3140.97 L4246.95 3141.34 L4247.67 3142.06 L4248.04 3143.15 L4248.04 3143.88 L4247.67 3144.97 L4246.95 3145.7 L4245.85 3146.06 L4244.76 3146.06 L4243.67 3145.7 L4243.31 3145.34 L4242.95 3144.61 M 4250.44 3140.97L4252.62 3146.06 M 4254.8 3140.97L4252.62 3146.06 " fill="none"  stroke-width="0.8"  /></g><g c_partid="part_pcbtext" c_etype="pinpart" c_origin="4234,3156" c_rotation="0" c_mirror="0" id="gge1432" locked="0" layerid="3" c_shapetype="group" ><path c_fontsize="8" c_fontfamily="" c_text="GND" d="M 4239.45 3149.75L4239.09 3149.02 L4238.36 3148.29 L4237.64 3147.93 L4236.18 3147.93 L4235.45 3148.29 L4234.73 3149.02 L4234.36 3149.75 L4234 3150.84 L4234 3152.65 L4234.36 3153.75 L4234.73 3154.47 L4235.45 3155.2 L4236.18 3155.56 L4237.64 3155.56 L4238.36 3155.2 L4239.09 3154.47 L4239.45 3153.75 L4239.45 3152.65 M 4237.64 3152.65L4239.45 3152.65 M 4241.85 3147.93L4241.85 3155.56 M 4241.85 3147.93L4246.95 3155.56 M 4246.95 3147.93L4246.95 3155.56 M 4249.35 3147.93L4249.35 3155.56 M 4249.35 3147.93L4251.89 3147.93 L4252.98 3148.29 L4253.71 3149.02 L4254.07 3149.75 L4254.44 3150.84 L4254.44 3152.65 L4254.07 3153.75 L4253.71 3154.47 L4252.98 3155.2 L4251.89 3155.56 L4249.35 3155.56 " fill="none"  stroke-width="0.8"  /></g><g c_partid="part_pcbtext" c_etype="pinpart" c_origin="4073,3194.5" c_rotation="0" c_mirror="0" id="gge621314" locked="0" layerid="3" c_shapetype="group" ><path c_fontsize="8" c_fontfamily="NotoSansCJKsc-DemiLight" c_text="https://github.com/kgroveshok/z80-homebrew" d="M 4073.76 3194.5 L 4074.41 3194.5 L 4074.41 3191.34 C 4074.86 3190.88 4075.18 3190.64 4075.64 3190.64 C 4076.24 3190.64 4076.5 3191 4076.5 3191.84 L 4076.5 3194.5 L 4077.15 3194.5 L 4077.15 3191.76 C 4077.15 3190.65 4076.74 3190.07 4075.83 3190.07 C 4075.24 3190.07 4074.8 3190.4 4074.38 3190.8 L 4074.41 3189.9 L 4074.41 3188.13 L 4073.76 3188.13 Z  M 4079.89 3194.6 C 4080.13 3194.6 4080.42 3194.52 4080.66 3194.44 L 4080.53 3193.95 C 4080.38 3194.01 4080.18 3194.07 4080.02 3194.07 C 4079.5 3194.07 4079.34 3193.75 4079.34 3193.22 L 4079.34 3190.72 L 4080.54 3190.72 L 4080.54 3190.18 L 4079.34 3190.18 L 4079.34 3188.96 L 4078.8 3188.96 L 4078.72 3190.18 L 4078.04 3190.22 L 4078.04 3190.72 L 4078.7 3190.72 L 4078.7 3193.2 C 4078.7 3194.04 4078.98 3194.6 4079.89 3194.6 Z  M 4082.66 3194.6 C 4082.9 3194.6 4083.19 3194.52 4083.43 3194.44 L 4083.3 3193.95 C 4083.16 3194.01 4082.96 3194.07 4082.8 3194.07 C 4082.28 3194.07 4082.12 3193.75 4082.12 3193.22 L 4082.12 3190.72 L 4083.31 3190.72 L 4083.31 3190.18 L 4082.12 3190.18 L 4082.12 3188.96 L 4081.58 3188.96 L 4081.5 3190.18 L 4080.82 3190.22 L 4080.82 3190.72 L 4081.47 3190.72 L 4081.47 3193.2 C 4081.47 3194.04 4081.76 3194.6 4082.66 3194.6 Z  M 4084.3 3196.36 L 4084.95 3196.36 L 4084.95 3194.86 L 4084.94 3194.1 C 4085.34 3194.42 4085.75 3194.6 4086.15 3194.6 C 4087.15 3194.6 4088.04 3193.75 4088.04 3192.27 C 4088.04 3190.94 4087.44 3190.07 4086.31 3190.07 C 4085.81 3190.07 4085.32 3190.36 4084.92 3190.68 L 4084.9 3190.68 L 4084.83 3190.18 L 4084.3 3190.18 Z  M 4086.06 3194.05 C 4085.76 3194.05 4085.36 3193.93 4084.95 3193.58 L 4084.95 3191.24 C 4085.39 3190.84 4085.78 3190.62 4086.16 3190.62 C 4087.02 3190.62 4087.36 3191.3 4087.36 3192.28 C 4087.36 3193.37 4086.81 3194.05 4086.06 3194.05 Z  M 4090.33 3194.6 C 4091.33 3194.6 4091.87 3194.03 4091.87 3193.34 C 4091.87 3192.52 4091.17 3192.27 4090.54 3192.02 C 4090.04 3191.84 4089.59 3191.68 4089.59 3191.24 C 4089.59 3190.89 4089.86 3190.59 4090.43 3190.59 C 4090.82 3190.59 4091.13 3190.76 4091.42 3190.97 L 4091.74 3190.55 C 4091.42 3190.28 4090.95 3190.07 4090.43 3190.07 C 4089.5 3190.07 4088.96 3190.6 4088.96 3191.28 C 4088.96 3192.01 4089.62 3192.3 4090.24 3192.52 C 4090.73 3192.7 4091.25 3192.91 4091.25 3193.37 C 4091.25 3193.77 4090.95 3194.09 4090.35 3194.09 C 4089.81 3194.09 4089.42 3193.88 4089.05 3193.57 L 4088.72 3194.01 C 4089.13 3194.35 4089.71 3194.6 4090.33 3194.6 Z  M 4093.24 3191.34 C 4093.51 3191.34 4093.74 3191.13 4093.74 3190.83 C 4093.74 3190.51 4093.51 3190.3 4093.24 3190.3 C 4092.98 3190.3 4092.75 3190.51 4092.75 3190.83 C 4092.75 3191.13 4092.98 3191.34 4093.24 3191.34 Z  M 4093.24 3194.6 C 4093.51 3194.6 4093.74 3194.4 4093.74 3194.09 C 4093.74 3193.77 4093.51 3193.56 4093.24 3193.56 C 4092.98 3193.56 4092.75 3193.77 4092.75 3194.09 C 4092.75 3194.4 4092.98 3194.6 4093.24 3194.6 Z  M 4094.42 3195.92 L 4094.9 3195.92 L 4097.37 3188.16 L 4096.89 3188.16 Z  M 4097.55 3195.92 L 4098.03 3195.92 L 4100.5 3188.16 L 4100.02 3188.16 Z  M 4102.71 3196.51 C 4104.02 3196.51 4104.86 3195.81 4104.86 3195.03 C 4104.86 3194.32 4104.37 3194 4103.38 3194 L 4102.51 3194 C 4101.92 3194 4101.74 3193.8 4101.74 3193.52 C 4101.74 3193.26 4101.87 3193.11 4102.03 3192.97 C 4102.23 3193.08 4102.48 3193.13 4102.7 3193.13 C 4103.57 3193.13 4104.26 3192.54 4104.26 3191.62 C 4104.26 3191.23 4104.1 3190.89 4103.88 3190.68 L 4104.79 3190.68 L 4104.79 3190.18 L 4103.3 3190.18 C 4103.14 3190.12 4102.94 3190.07 4102.7 3190.07 C 4101.82 3190.07 4101.1 3190.68 4101.1 3191.6 C 4101.1 3192.12 4101.38 3192.55 4101.66 3192.77 L 4101.66 3192.8 C 4101.44 3192.96 4101.18 3193.24 4101.18 3193.6 C 4101.18 3193.95 4101.34 3194.18 4101.57 3194.32 L 4101.57 3194.35 C 4101.17 3194.61 4100.93 3194.97 4100.93 3195.34 C 4100.93 3196.08 4101.65 3196.51 4102.71 3196.51 Z  M 4102.7 3192.68 C 4102.18 3192.68 4101.73 3192.26 4101.73 3191.6 C 4101.73 3190.95 4102.16 3190.56 4102.7 3190.56 C 4103.22 3190.56 4103.66 3190.96 4103.66 3191.6 C 4103.66 3192.26 4103.22 3192.68 4102.7 3192.68 Z  M 4102.8 3196.05 C 4101.99 3196.05 4101.5 3195.74 4101.5 3195.26 C 4101.5 3195 4101.65 3194.72 4101.98 3194.48 C 4102.18 3194.53 4102.39 3194.56 4102.53 3194.56 L 4103.32 3194.56 C 4103.91 3194.56 4104.22 3194.7 4104.22 3195.12 C 4104.22 3195.59 4103.66 3196.05 4102.8 3196.05 Z  M 4105.73 3194.5 L 4106.38 3194.5 L 4106.38 3190.18 L 4105.73 3190.18 Z  M 4106.06 3189.25 C 4106.31 3189.25 4106.5 3189.08 4106.5 3188.8 C 4106.5 3188.53 4106.31 3188.36 4106.06 3188.36 C 4105.78 3188.36 4105.6 3188.53 4105.6 3188.8 C 4105.6 3189.08 4105.78 3189.25 4106.06 3189.25 Z  M 4109.19 3194.6 C 4109.43 3194.6 4109.72 3194.52 4109.96 3194.44 L 4109.83 3193.95 C 4109.69 3194.01 4109.49 3194.07 4109.33 3194.07 C 4108.81 3194.07 4108.65 3193.75 4108.65 3193.22 L 4108.65 3190.72 L 4109.84 3190.72 L 4109.84 3190.18 L 4108.65 3190.18 L 4108.65 3188.96 L 4108.1 3188.96 L 4108.02 3190.18 L 4107.34 3190.22 L 4107.34 3190.72 L 4108 3190.72 L 4108 3193.2 C 4108 3194.04 4108.29 3194.6 4109.19 3194.6 Z  M 4110.83 3194.5 L 4111.48 3194.5 L 4111.48 3191.34 C 4111.93 3190.88 4112.26 3190.64 4112.71 3190.64 C 4113.31 3190.64 4113.57 3191 4113.57 3191.84 L 4113.57 3194.5 L 4114.22 3194.5 L 4114.22 3191.76 C 4114.22 3190.65 4113.81 3190.07 4112.9 3190.07 C 4112.31 3190.07 4111.87 3190.4 4111.46 3190.8 L 4111.48 3189.9 L 4111.48 3188.13 L 4110.83 3188.13 Z  M 4116.9 3194.6 C 4117.5 3194.6 4117.93 3194.28 4118.34 3193.81 L 4118.36 3193.81 L 4118.42 3194.5 L 4118.95 3194.5 L 4118.95 3190.18 L 4118.3 3190.18 L 4118.3 3193.28 C 4117.87 3193.8 4117.54 3194.04 4117.09 3194.04 C 4116.48 3194.04 4116.23 3193.67 4116.23 3192.84 L 4116.23 3190.18 L 4115.58 3190.18 L 4115.58 3192.92 C 4115.58 3194.03 4115.99 3194.6 4116.9 3194.6 Z  M 4122.31 3194.6 C 4123.31 3194.6 4124.2 3193.75 4124.2 3192.27 C 4124.2 3190.94 4123.6 3190.07 4122.47 3190.07 C 4121.98 3190.07 4121.49 3190.35 4121.08 3190.69 L 4121.11 3189.9 L 4121.11 3188.13 L 4120.46 3188.13 L 4120.46 3194.5 L 4120.98 3194.5 L 4121.05 3194.05 L 4121.06 3194.05 C 4121.45 3194.4 4121.91 3194.6 4122.31 3194.6 Z  M 4122.22 3194.05 C 4121.92 3194.05 4121.51 3193.93 4121.11 3193.58 L 4121.11 3191.24 C 4121.54 3190.84 4121.94 3190.62 4122.32 3190.62 C 4123.18 3190.62 4123.52 3191.3 4123.52 3192.28 C 4123.52 3193.37 4122.97 3194.05 4122.22 3194.05 Z  M 4125.6 3194.6 C 4125.87 3194.6 4126.1 3194.4 4126.1 3194.09 C 4126.1 3193.77 4125.87 3193.56 4125.6 3193.56 C 4125.34 3193.56 4125.11 3193.77 4125.11 3194.09 C 4125.11 3194.4 4125.34 3194.6 4125.6 3194.6 Z  M 4129.02 3194.6 C 4129.54 3194.6 4130.02 3194.4 4130.41 3194.05 L 4130.12 3193.62 C 4129.85 3193.86 4129.48 3194.06 4129.07 3194.06 C 4128.24 3194.06 4127.68 3193.37 4127.68 3192.34 C 4127.68 3191.32 4128.28 3190.62 4129.09 3190.62 C 4129.45 3190.62 4129.73 3190.78 4129.98 3191.01 L 4130.33 3190.59 C 4130.02 3190.31 4129.63 3190.07 4129.06 3190.07 C 4127.97 3190.07 4127.01 3190.9 4127.01 3192.34 C 4127.01 3193.77 4127.88 3194.6 4129.02 3194.6 Z  M 4132.86 3194.6 C 4133.91 3194.6 4134.85 3193.77 4134.85 3192.34 C 4134.85 3190.9 4133.91 3190.07 4132.86 3190.07 C 4131.8 3190.07 4130.87 3190.9 4130.87 3192.34 C 4130.87 3193.77 4131.8 3194.6 4132.86 3194.6 Z  M 4132.86 3194.06 C 4132.08 3194.06 4131.54 3193.37 4131.54 3192.34 C 4131.54 3191.32 4132.08 3190.62 4132.86 3190.62 C 4133.63 3190.62 4134.18 3191.32 4134.18 3192.34 C 4134.18 3193.37 4133.63 3194.06 4132.86 3194.06 Z  M 4136.02 3194.5 L 4136.67 3194.5 L 4136.67 3191.34 C 4137.08 3190.87 4137.46 3190.64 4137.8 3190.64 C 4138.38 3190.64 4138.65 3191 4138.65 3191.84 L 4138.65 3194.5 L 4139.3 3194.5 L 4139.3 3191.34 C 4139.71 3190.87 4140.08 3190.64 4140.43 3190.64 C 4141.01 3190.64 4141.27 3191 4141.27 3191.84 L 4141.27 3194.5 L 4141.93 3194.5 L 4141.93 3191.76 C 4141.93 3190.65 4141.5 3190.07 4140.62 3190.07 C 4140.1 3190.07 4139.64 3190.41 4139.18 3190.91 C 4139.01 3190.4 4138.66 3190.07 4137.98 3190.07 C 4137.48 3190.07 4137.02 3190.4 4136.64 3190.82 L 4136.62 3190.82 L 4136.55 3190.18 L 4136.02 3190.18 Z  M 4142.7 3195.92 L 4143.18 3195.92 L 4145.66 3188.16 L 4145.18 3188.16 Z  M 4146.51 3194.5 L 4147.15 3194.5 L 4147.15 3193.35 L 4147.99 3192.36 L 4149.3 3194.5 L 4150.01 3194.5 L 4148.38 3191.92 L 4149.81 3190.18 L 4149.08 3190.18 L 4147.18 3192.54 L 4147.15 3192.54 L 4147.15 3188.13 L 4146.51 3188.13 Z  M 4152.21 3196.51 C 4153.52 3196.51 4154.36 3195.81 4154.36 3195.03 C 4154.36 3194.32 4153.86 3194 4152.87 3194 L 4152.01 3194 C 4151.42 3194 4151.24 3193.8 4151.24 3193.52 C 4151.24 3193.26 4151.37 3193.11 4151.53 3192.97 C 4151.73 3193.08 4151.98 3193.13 4152.19 3193.13 C 4153.06 3193.13 4153.75 3192.54 4153.75 3191.62 C 4153.75 3191.23 4153.59 3190.89 4153.38 3190.68 L 4154.29 3190.68 L 4154.29 3190.18 L 4152.79 3190.18 C 4152.64 3190.12 4152.43 3190.07 4152.19 3190.07 C 4151.32 3190.07 4150.59 3190.68 4150.59 3191.6 C 4150.59 3192.12 4150.87 3192.55 4151.15 3192.77 L 4151.15 3192.8 C 4150.94 3192.96 4150.67 3193.24 4150.67 3193.6 C 4150.67 3193.95 4150.84 3194.18 4151.06 3194.32 L 4151.06 3194.35 C 4150.66 3194.61 4150.42 3194.97 4150.42 3195.34 C 4150.42 3196.08 4151.14 3196.51 4152.21 3196.51 Z  M 4152.19 3192.68 C 4151.67 3192.68 4151.22 3192.26 4151.22 3191.6 C 4151.22 3190.95 4151.66 3190.56 4152.19 3190.56 C 4152.72 3190.56 4153.16 3190.96 4153.16 3191.6 C 4153.16 3192.26 4152.71 3192.68 4152.19 3192.68 Z  M 4152.3 3196.05 C 4151.49 3196.05 4151 3195.74 4151 3195.26 C 4151 3195 4151.14 3194.72 4151.47 3194.48 C 4151.67 3194.53 4151.89 3194.56 4152.02 3194.56 L 4152.82 3194.56 C 4153.41 3194.56 4153.72 3194.7 4153.72 3195.12 C 4153.72 3195.59 4153.16 3196.05 4152.3 3196.05 Z  M 4155.22 3194.5 L 4155.87 3194.5 L 4155.87 3191.68 C 4156.17 3190.93 4156.62 3190.66 4156.98 3190.66 C 4157.15 3190.66 4157.25 3190.68 4157.39 3190.73 L 4157.52 3190.16 C 4157.38 3190.09 4157.25 3190.07 4157.06 3190.07 C 4156.58 3190.07 4156.14 3190.43 4155.84 3190.97 L 4155.82 3190.97 L 4155.75 3190.18 L 4155.22 3190.18 Z  M 4159.82 3194.6 C 4160.87 3194.6 4161.81 3193.77 4161.81 3192.34 C 4161.81 3190.9 4160.87 3190.07 4159.82 3190.07 C 4158.76 3190.07 4157.83 3190.9 4157.83 3192.34 C 4157.83 3193.77 4158.76 3194.6 4159.82 3194.6 Z  M 4159.82 3194.06 C 4159.04 3194.06 4158.5 3193.37 4158.5 3192.34 C 4158.5 3191.32 4159.04 3190.62 4159.82 3190.62 C 4160.59 3190.62 4161.14 3191.32 4161.14 3192.34 C 4161.14 3193.37 4160.59 3194.06 4159.82 3194.06 Z  M 4163.87 3194.5 L 4164.63 3194.5 L 4166.18 3190.18 L 4165.54 3190.18 L 4164.68 3192.69 C 4164.55 3193.12 4164.41 3193.56 4164.27 3193.96 L 4164.24 3193.96 C 4164.1 3193.56 4163.96 3193.12 4163.83 3192.69 L 4162.98 3190.18 L 4162.3 3190.18 Z  M 4168.72 3194.6 C 4169.32 3194.6 4169.76 3194.4 4170.14 3194.16 L 4169.9 3193.73 C 4169.58 3193.95 4169.22 3194.08 4168.8 3194.08 C 4167.94 3194.08 4167.36 3193.44 4167.32 3192.48 L 4170.27 3192.48 C 4170.3 3192.38 4170.3 3192.24 4170.3 3192.09 C 4170.3 3190.84 4169.68 3190.07 4168.6 3190.07 C 4167.61 3190.07 4166.67 3190.94 4166.67 3192.34 C 4166.67 3193.76 4167.58 3194.6 4168.72 3194.6 Z  M 4167.31 3192 C 4167.4 3191.12 4167.97 3190.6 4168.61 3190.6 C 4169.31 3190.6 4169.73 3191.08 4169.73 3192 Z  M 4172.5 3194.6 C 4173.5 3194.6 4174.05 3194.03 4174.05 3193.34 C 4174.05 3192.52 4173.34 3192.27 4172.71 3192.02 C 4172.22 3191.84 4171.77 3191.68 4171.77 3191.24 C 4171.77 3190.89 4172.03 3190.59 4172.61 3190.59 C 4173 3190.59 4173.3 3190.76 4173.6 3190.97 L 4173.92 3190.55 C 4173.59 3190.28 4173.13 3190.07 4172.61 3190.07 C 4171.67 3190.07 4171.14 3190.6 4171.14 3191.28 C 4171.14 3192.01 4171.8 3192.3 4172.42 3192.52 C 4172.9 3192.7 4173.42 3192.91 4173.42 3193.37 C 4173.42 3193.77 4173.13 3194.09 4172.53 3194.09 C 4171.98 3194.09 4171.6 3193.88 4171.22 3193.57 L 4170.9 3194.01 C 4171.3 3194.35 4171.89 3194.6 4172.5 3194.6 Z  M 4175.1 3194.5 L 4175.75 3194.5 L 4175.75 3191.34 C 4176.2 3190.88 4176.53 3190.64 4176.98 3190.64 C 4177.58 3190.64 4177.84 3191 4177.84 3191.84 L 4177.84 3194.5 L 4178.5 3194.5 L 4178.5 3191.76 C 4178.5 3190.65 4178.08 3190.07 4177.18 3190.07 C 4176.58 3190.07 4176.14 3190.4 4175.73 3190.8 L 4175.75 3189.9 L 4175.75 3188.13 L 4175.1 3188.13 Z  M 4181.57 3194.6 C 4182.62 3194.6 4183.56 3193.77 4183.56 3192.34 C 4183.56 3190.9 4182.62 3190.07 4181.57 3190.07 C 4180.51 3190.07 4179.58 3190.9 4179.58 3192.34 C 4179.58 3193.77 4180.51 3194.6 4181.57 3194.6 Z  M 4181.57 3194.06 C 4180.79 3194.06 4180.26 3193.37 4180.26 3192.34 C 4180.26 3191.32 4180.79 3190.62 4181.57 3190.62 C 4182.34 3190.62 4182.89 3191.32 4182.89 3192.34 C 4182.89 3193.37 4182.34 3194.06 4181.57 3194.06 Z  M 4184.74 3194.5 L 4185.38 3194.5 L 4185.38 3193.35 L 4186.22 3192.36 L 4187.52 3194.5 L 4188.23 3194.5 L 4186.6 3191.92 L 4188.03 3190.18 L 4187.3 3190.18 L 4185.4 3192.54 L 4185.38 3192.54 L 4185.38 3188.13 L 4184.74 3188.13 Z  M 4188.41 3195.92 L 4188.89 3195.92 L 4191.36 3188.16 L 4190.88 3188.16 Z  M 4191.73 3194.5 L 4194.97 3194.5 L 4194.97 3193.96 L 4192.55 3193.96 L 4194.9 3190.52 L 4194.9 3190.18 L 4191.98 3190.18 L 4191.98 3190.72 L 4194.07 3190.72 L 4191.73 3194.15 Z  M 4197.42 3194.6 C 4198.5 3194.6 4199.22 3193.94 4199.22 3193.1 C 4199.22 3192.3 4198.74 3191.86 4198.23 3191.56 L 4198.23 3191.52 C 4198.58 3191.25 4199.02 3190.72 4199.02 3190.1 C 4199.02 3189.2 4198.42 3188.56 4197.43 3188.56 C 4196.54 3188.56 4195.86 3189.16 4195.86 3190.04 C 4195.86 3190.65 4196.22 3191.09 4196.65 3191.38 L 4196.65 3191.41 C 4196.11 3191.7 4195.56 3192.25 4195.56 3193.04 C 4195.56 3193.95 4196.34 3194.6 4197.42 3194.6 Z  M 4197.82 3191.35 C 4197.12 3191.08 4196.46 3190.76 4196.46 3190.04 C 4196.46 3189.45 4196.86 3189.05 4197.42 3189.05 C 4198.08 3189.05 4198.46 3189.54 4198.46 3190.13 C 4198.46 3190.58 4198.23 3191 4197.82 3191.35 Z  M 4197.42 3194.12 C 4196.7 3194.12 4196.15 3193.64 4196.15 3193 C 4196.15 3192.41 4196.5 3191.93 4197 3191.62 C 4197.85 3191.96 4198.6 3192.27 4198.6 3193.08 C 4198.6 3193.68 4198.13 3194.12 4197.42 3194.12 Z  M 4201.79 3194.6 C 4202.89 3194.6 4203.58 3193.6 4203.58 3191.55 C 4203.58 3189.52 4202.89 3188.54 4201.79 3188.54 C 4200.69 3188.54 4199.99 3189.52 4199.99 3191.55 C 4199.99 3193.6 4200.69 3194.6 4201.79 3194.6 Z  M 4201.79 3194.08 C 4201.1 3194.08 4200.62 3193.29 4200.62 3191.55 C 4200.62 3189.84 4201.1 3189.07 4201.79 3189.07 C 4202.48 3189.07 4202.94 3189.84 4202.94 3191.55 C 4202.94 3193.29 4202.48 3194.08 4201.79 3194.08 Z  M 4204.35 3192.52 L 4206.38 3192.52 L 4206.38 3192.01 L 4204.35 3192.01 Z  M 4207.49 3194.5 L 4208.14 3194.5 L 4208.14 3191.34 C 4208.58 3190.88 4208.91 3190.64 4209.37 3190.64 C 4209.97 3190.64 4210.22 3191 4210.22 3191.84 L 4210.22 3194.5 L 4210.88 3194.5 L 4210.88 3191.76 C 4210.88 3190.65 4210.46 3190.07 4209.56 3190.07 C 4208.97 3190.07 4208.53 3190.4 4208.11 3190.8 L 4208.14 3189.9 L 4208.14 3188.13 L 4207.49 3188.13 Z  M 4213.95 3194.6 C 4215.01 3194.6 4215.94 3193.77 4215.94 3192.34 C 4215.94 3190.9 4215.01 3190.07 4213.95 3190.07 C 4212.9 3190.07 4211.97 3190.9 4211.97 3192.34 C 4211.97 3193.77 4212.9 3194.6 4213.95 3194.6 Z  M 4213.95 3194.06 C 4213.18 3194.06 4212.64 3193.37 4212.64 3192.34 C 4212.64 3191.32 4213.18 3190.62 4213.95 3190.62 C 4214.73 3190.62 4215.27 3191.32 4215.27 3192.34 C 4215.27 3193.37 4214.73 3194.06 4213.95 3194.06 Z  M 4217.12 3194.5 L 4217.77 3194.5 L 4217.77 3191.34 C 4218.18 3190.87 4218.56 3190.64 4218.9 3190.64 C 4219.48 3190.64 4219.74 3191 4219.74 3191.84 L 4219.74 3194.5 L 4220.39 3194.5 L 4220.39 3191.34 C 4220.81 3190.87 4221.18 3190.64 4221.53 3190.64 C 4222.1 3190.64 4222.37 3191 4222.37 3191.84 L 4222.37 3194.5 L 4223.02 3194.5 L 4223.02 3191.76 C 4223.02 3190.65 4222.59 3190.07 4221.71 3190.07 C 4221.19 3190.07 4220.74 3190.41 4220.27 3190.91 C 4220.1 3190.4 4219.75 3190.07 4219.08 3190.07 C 4218.58 3190.07 4218.11 3190.4 4217.74 3190.82 L 4217.71 3190.82 L 4217.65 3190.18 L 4217.12 3190.18 Z  M 4226.18 3194.6 C 4226.78 3194.6 4227.22 3194.4 4227.6 3194.16 L 4227.36 3193.73 C 4227.04 3193.95 4226.69 3194.08 4226.26 3194.08 C 4225.4 3194.08 4224.82 3193.44 4224.78 3192.48 L 4227.74 3192.48 C 4227.76 3192.38 4227.77 3192.24 4227.77 3192.09 C 4227.77 3190.84 4227.14 3190.07 4226.06 3190.07 C 4225.07 3190.07 4224.14 3190.94 4224.14 3192.34 C 4224.14 3193.76 4225.05 3194.6 4226.18 3194.6 Z  M 4224.78 3192 C 4224.86 3191.12 4225.43 3190.6 4226.07 3190.6 C 4226.78 3190.6 4227.19 3191.08 4227.19 3192 Z  M 4230.71 3194.6 C 4231.71 3194.6 4232.6 3193.75 4232.6 3192.27 C 4232.6 3190.94 4232 3190.07 4230.87 3190.07 C 4230.38 3190.07 4229.89 3190.35 4229.48 3190.69 L 4229.51 3189.9 L 4229.51 3188.13 L 4228.86 3188.13 L 4228.86 3194.5 L 4229.38 3194.5 L 4229.45 3194.05 L 4229.46 3194.05 C 4229.85 3194.4 4230.31 3194.6 4230.71 3194.6 Z  M 4230.62 3194.05 C 4230.32 3194.05 4229.91 3193.93 4229.51 3193.58 L 4229.51 3191.24 C 4229.94 3190.84 4230.34 3190.62 4230.72 3190.62 C 4231.58 3190.62 4231.92 3191.3 4231.92 3192.28 C 4231.92 3193.37 4231.37 3194.05 4230.62 3194.05 Z  M 4233.78 3194.5 L 4234.42 3194.5 L 4234.42 3191.68 C 4234.72 3190.93 4235.17 3190.66 4235.54 3190.66 C 4235.7 3190.66 4235.8 3190.68 4235.94 3190.73 L 4236.07 3190.16 C 4235.93 3190.09 4235.8 3190.07 4235.62 3190.07 C 4235.13 3190.07 4234.69 3190.43 4234.39 3190.97 L 4234.37 3190.97 L 4234.3 3190.18 L 4233.78 3190.18 Z  M 4238.43 3194.6 C 4239.03 3194.6 4239.47 3194.4 4239.85 3194.16 L 4239.61 3193.73 C 4239.29 3193.95 4238.94 3194.08 4238.51 3194.08 C 4237.65 3194.08 4237.07 3193.44 4237.03 3192.48 L 4239.98 3192.48 C 4240.01 3192.38 4240.02 3192.24 4240.02 3192.09 C 4240.02 3190.84 4239.39 3190.07 4238.31 3190.07 C 4237.32 3190.07 4236.38 3190.94 4236.38 3192.34 C 4236.38 3193.76 4237.3 3194.6 4238.43 3194.6 Z  M 4237.02 3192 C 4237.11 3191.12 4237.68 3190.6 4238.32 3190.6 C 4239.02 3190.6 4239.44 3191.08 4239.44 3192 Z  M 4241.84 3194.5 L 4242.61 3194.5 L 4243.24 3192.1 C 4243.37 3191.69 4243.46 3191.28 4243.55 3190.84 L 4243.59 3190.84 C 4243.7 3191.28 4243.78 3191.68 4243.9 3192.09 L 4244.55 3194.5 L 4245.34 3194.5 L 4246.53 3190.18 L 4245.9 3190.18 L 4245.24 3192.75 C 4245.14 3193.16 4245.06 3193.54 4244.96 3193.94 L 4244.93 3193.94 C 4244.82 3193.54 4244.73 3193.16 4244.62 3192.75 L 4243.92 3190.18 L 4243.26 3190.18 L 4242.57 3192.75 C 4242.46 3193.16 4242.37 3193.54 4242.26 3193.94 L 4242.23 3193.94 C 4242.14 3193.54 4242.06 3193.16 4241.97 3192.75 L 4241.29 3190.18 L 4240.62 3190.18 Z "  stroke="none" stroke-width="0.8"  /></g><g c_partid="part_pcbtext" c_etype="pinpart" c_origin="4121,3168.5" c_rotation="0" c_mirror="0" id="gge621326" locked="0" layerid="3" c_shapetype="group" ><path c_fontsize="8" c_fontfamily="" c_text="SPISound v1.0" d="M 4126.09 3161.52 L 4125.36 3160.79 L 4124.27 3160.43 L 4122.82 3160.43 L 4121.73 3160.79 L 4121 3161.52 L 4121 3162.25 L 4121.36 3162.97 L 4121.73 3163.34 L 4122.45 3163.7 L 4124.64 3164.43 L 4125.36 3164.79 L 4125.73 3165.15 L 4126.09 3165.88 L 4126.09 3166.97 L 4125.36 3167.7 L 4124.27 3168.06 L 4122.82 3168.06 L 4121.73 3167.7 L 4121 3166.97 M 4128.49 3160.43 L 4128.49 3168.06 M 4128.49 3160.43 L 4131.76 3160.43 L 4132.85 3160.79 L 4133.22 3161.15 L 4133.58 3161.88 L 4133.58 3162.97 L 4133.22 3163.7 L 4132.85 3164.06 L 4131.76 3164.43 L 4128.49 3164.43 M 4135.98 3160.43 L 4135.98 3168.06 M 4143.47 3161.52 L 4142.75 3160.79 L 4141.65 3160.43 L 4140.2 3160.43 L 4139.11 3160.79 L 4138.38 3161.52 L 4138.38 3162.25 L 4138.75 3162.97 L 4139.11 3163.34 L 4139.84 3163.7 L 4142.02 3164.43 L 4142.75 3164.79 L 4143.11 3165.15 L 4143.47 3165.88 L 4143.47 3166.97 L 4142.75 3167.7 L 4141.65 3168.06 L 4140.2 3168.06 L 4139.11 3167.7 L 4138.38 3166.97 M 4147.69 3162.97 L 4146.96 3163.34 L 4146.24 3164.06 L 4145.87 3165.15 L 4145.87 3165.88 L 4146.24 3166.97 L 4146.96 3167.7 L 4147.69 3168.06 L 4148.78 3168.06 L 4149.51 3167.7 L 4150.24 3166.97 L 4150.6 3165.88 L 4150.6 3165.15 L 4150.24 3164.06 L 4149.51 3163.34 L 4148.78 3162.97 L 4147.69 3162.97 M 4153 3162.97 L 4153 3166.61 L 4153.36 3167.7 L 4154.09 3168.06 L 4155.18 3168.06 L 4155.91 3167.7 L 4157 3166.61 M 4157 3162.97 L 4157 3168.06 M 4159.4 3162.97 L 4159.4 3168.06 M 4159.4 3164.43 L 4160.49 3163.34 L 4161.22 3162.97 L 4162.31 3162.97 L 4163.04 3163.34 L 4163.4 3164.43 L 4163.4 3168.06 M 4170.16 3160.43 L 4170.16 3168.06 M 4170.16 3164.06 L 4169.44 3163.34 L 4168.71 3162.97 L 4167.62 3162.97 L 4166.89 3163.34 L 4166.16 3164.06 L 4165.8 3165.15 L 4165.8 3165.88 L 4166.16 3166.97 L 4166.89 3167.7 L 4167.62 3168.06 L 4168.71 3168.06 L 4169.44 3167.7 L 4170.16 3166.97 M 4178.16 3162.97 L 4180.35 3168.06 M 4182.53 3162.97 L 4180.35 3168.06 M 4184.93 3161.88 L 4185.65 3161.52 L 4186.75 3160.43 L 4186.75 3168.06 M 4189.51 3166.25 L 4189.15 3166.61 L 4189.51 3166.97 L 4189.87 3166.61 L 4189.51 3166.25 M 4194.45 3160.43 L 4193.36 3160.79 L 4192.64 3161.88 L 4192.27 3163.7 L 4192.27 3164.79 L 4192.64 3166.61 L 4193.36 3167.7 L 4194.45 3168.06 L 4195.18 3168.06 L 4196.27 3167.7 L 4197 3166.61 L 4197.36 3164.79 L 4197.36 3163.7 L 4197 3161.88 L 4196.27 3160.79 L 4195.18 3160.43 L 4194.45 3160.43" fill="none"  stroke-width="0.8"  /></g><g c_partid="part_pcbtext" c_etype="pinpart" c_origin="4089,3181" c_rotation="0" c_mirror="0" id="gge621347" locked="0" layerid="3" c_shapetype="group" ><path c_fontsize="8" c_fontfamily="" c_text="(c) 2025 Kevin Groves" d="M 4091.55 3171.47 L 4090.82 3172.2 L 4090.09 3173.29 L 4089.36 3174.75 L 4089 3176.56 L 4089 3178.02 L 4089.36 3179.84 L 4090.09 3181.29 L 4090.82 3182.38 L 4091.55 3183.11 M 4098.31 3176.56 L 4097.58 3175.84 L 4096.85 3175.47 L 4095.76 3175.47 L 4095.04 3175.84 L 4094.31 3176.56 L 4093.95 3177.65 L 4093.95 3178.38 L 4094.31 3179.47 L 4095.04 3180.2 L 4095.76 3180.56 L 4096.85 3180.56 L 4097.58 3180.2 L 4098.31 3179.47 M 4100.71 3171.47 L 4101.44 3172.2 L 4102.16 3173.29 L 4102.89 3174.75 L 4103.25 3176.56 L 4103.25 3178.02 L 4102.89 3179.84 L 4102.16 3181.29 L 4101.44 3182.38 L 4100.71 3183.11 M 4111.62 3174.75 L 4111.62 3174.38 L 4111.98 3173.65 L 4112.35 3173.29 L 4113.07 3172.93 L 4114.53 3172.93 L 4115.25 3173.29 L 4115.62 3173.65 L 4115.98 3174.38 L 4115.98 3175.11 L 4115.62 3175.84 L 4114.89 3176.93 L 4111.25 3180.56 L 4116.35 3180.56 M 4120.93 3172.93 L 4119.84 3173.29 L 4119.11 3174.38 L 4118.75 3176.2 L 4118.75 3177.29 L 4119.11 3179.11 L 4119.84 3180.2 L 4120.93 3180.56 L 4121.65 3180.56 L 4122.75 3180.2 L 4123.47 3179.11 L 4123.84 3177.29 L 4123.84 3176.2 L 4123.47 3174.38 L 4122.75 3173.29 L 4121.65 3172.93 L 4120.93 3172.93 M 4126.6 3174.75 L 4126.6 3174.38 L 4126.96 3173.65 L 4127.33 3173.29 L 4128.05 3172.93 L 4129.51 3172.93 L 4130.24 3173.29 L 4130.6 3173.65 L 4130.96 3174.38 L 4130.96 3175.11 L 4130.6 3175.84 L 4129.87 3176.93 L 4126.24 3180.56 L 4131.33 3180.56 M 4138.09 3172.93 L 4134.45 3172.93 L 4134.09 3176.2 L 4134.45 3175.84 L 4135.55 3175.47 L 4136.64 3175.47 L 4137.73 3175.84 L 4138.45 3176.56 L 4138.82 3177.65 L 4138.82 3178.38 L 4138.45 3179.47 L 4137.73 3180.2 L 4136.64 3180.56 L 4135.55 3180.56 L 4134.45 3180.2 L 4134.09 3179.84 L 4133.73 3179.11 M 4146.82 3172.93 L 4146.82 3180.56 M 4151.91 3172.93 L 4146.82 3178.02 M 4148.64 3176.2 L 4151.91 3180.56 M 4154.31 3177.65 L 4158.67 3177.65 L 4158.67 3176.93 L 4158.31 3176.2 L 4157.95 3175.84 L 4157.22 3175.47 L 4156.13 3175.47 L 4155.4 3175.84 L 4154.67 3176.56 L 4154.31 3177.65 L 4154.31 3178.38 L 4154.67 3179.47 L 4155.4 3180.2 L 4156.13 3180.56 L 4157.22 3180.56 L 4157.95 3180.2 L 4158.67 3179.47 M 4161.07 3175.47 L 4163.25 3180.56 M 4165.44 3175.47 L 4163.25 3180.56 M 4167.84 3172.93 L 4168.2 3173.29 L 4168.56 3172.93 L 4168.2 3172.56 L 4167.84 3172.93 M 4168.2 3175.47 L 4168.2 3180.56 M 4170.96 3175.47 L 4170.96 3180.56 M 4170.96 3176.93 L 4172.05 3175.84 L 4172.78 3175.47 L 4173.87 3175.47 L 4174.6 3175.84 L 4174.96 3176.93 L 4174.96 3180.56 M 4188.42 3174.75 L 4188.05 3174.02 L 4187.33 3173.29 L 4186.6 3172.93 L 4185.15 3172.93 L 4184.42 3173.29 L 4183.69 3174.02 L 4183.33 3174.75 L 4182.96 3175.84 L 4182.96 3177.65 L 4183.33 3178.75 L 4183.69 3179.47 L 4184.42 3180.2 L 4185.15 3180.56 L 4186.6 3180.56 L 4187.33 3180.2 L 4188.05 3179.47 L 4188.42 3178.75 L 4188.42 3177.65 M 4186.6 3177.65 L 4188.42 3177.65 M 4190.82 3175.47 L 4190.82 3180.56 M 4190.82 3177.65 L 4191.18 3176.56 L 4191.91 3175.84 L 4192.64 3175.47 L 4193.73 3175.47 M 4197.95 3175.47 L 4197.22 3175.84 L 4196.49 3176.56 L 4196.13 3177.65 L 4196.13 3178.38 L 4196.49 3179.47 L 4197.22 3180.2 L 4197.95 3180.56 L 4199.04 3180.56 L 4199.76 3180.2 L 4200.49 3179.47 L 4200.85 3178.38 L 4200.85 3177.65 L 4200.49 3176.56 L 4199.76 3175.84 L 4199.04 3175.47 L 4197.95 3175.47 M 4203.25 3175.47 L 4205.44 3180.56 M 4207.62 3175.47 L 4205.44 3180.56 M 4210.02 3177.65 L 4214.38 3177.65 L 4214.38 3176.93 L 4214.02 3176.2 L 4213.65 3175.84 L 4212.93 3175.47 L 4211.84 3175.47 L 4211.11 3175.84 L 4210.38 3176.56 L 4210.02 3177.65 L 4210.02 3178.38 L 4210.38 3179.47 L 4211.11 3180.2 L 4211.84 3180.56 L 4212.93 3180.56 L 4213.65 3180.2 L 4214.38 3179.47 M 4220.78 3176.56 L 4220.42 3175.84 L 4219.33 3175.47 L 4218.24 3175.47 L 4217.15 3175.84 L 4216.78 3176.56 L 4217.15 3177.29 L 4217.87 3177.65 L 4219.69 3178.02 L 4220.42 3178.38 L 4220.78 3179.11 L 4220.78 3179.47 L 4220.42 3180.2 L 4219.33 3180.56 L 4218.24 3180.56 L 4217.15 3180.2 L 4216.78 3179.47" fill="none"  stroke-width="0.8"  /></g><g c_partid="part_pcbtext" c_etype="" c_origin="4276.79,3181.72" c_rotation="90" c_mirror="0" id="gge9" locked="0" layerid="3" c_shapetype="group" display="none"><path c_fontsize="4.5" c_fontfamily="" c_text="Header2.54mm 1*8P" d="M 4272.25 3181.7202 L 4276.54 3181.7202 M 4272.25 3178.8602 L 4276.54 3178.8602 M 4274.29 3181.7202 L 4274.29 3178.8602 M 4274.91 3177.5102 L 4274.91 3175.0502 L 4274.5 3175.0502 L 4274.09 3175.2602 L 4273.89 3175.4602 L 4273.68 3175.8702 L 4273.68 3176.4802 L 4273.89 3176.8902 L 4274.29 3177.3002 L 4274.91 3177.5102 L 4275.32 3177.5102 L 4275.93 3177.3002 L 4276.34 3176.8902 L 4276.54 3176.4802 L 4276.54 3175.8702 L 4276.34 3175.4602 L 4275.93 3175.0502 M 4273.68 3171.2502 L 4276.54 3171.2502 M 4274.29 3171.2502 L 4273.89 3171.6602 L 4273.68 3172.0702 L 4273.68 3172.6802 L 4273.89 3173.0902 L 4274.29 3173.5002 L 4274.91 3173.7002 L 4275.32 3173.7002 L 4275.93 3173.5002 L 4276.34 3173.0902 L 4276.54 3172.6802 L 4276.54 3172.0702 L 4276.34 3171.6602 L 4275.93 3171.2502 M 4272.25 3167.4402 L 4276.54 3167.4402 M 4274.29 3167.4402 L 4273.89 3167.8502 L 4273.68 3168.2602 L 4273.68 3168.8702 L 4273.89 3169.2802 L 4274.29 3169.6902 L 4274.91 3169.9002 L 4275.32 3169.9002 L 4275.93 3169.6902 L 4276.34 3169.2802 L 4276.54 3168.8702 L 4276.54 3168.2602 L 4276.34 3167.8502 L 4275.93 3167.4402 M 4274.91 3166.0902 L 4274.91 3163.6402 L 4274.5 3163.6402 L 4274.09 3163.8402 L 4273.89 3164.0502 L 4273.68 3164.4602 L 4273.68 3165.0702 L 4273.89 3165.4802 L 4274.29 3165.8902 L 4274.91 3166.0902 L 4275.32 3166.0902 L 4275.93 3165.8902 L 4276.34 3165.4802 L 4276.54 3165.0702 L 4276.54 3164.4602 L 4276.34 3164.0502 L 4275.93 3163.6402 M 4273.68 3162.2902 L 4276.54 3162.2902 M 4274.91 3162.2902 L 4274.29 3162.0802 L 4273.89 3161.6702 L 4273.68 3161.2702 L 4273.68 3160.6502 M 4273.27 3159.1002 L 4273.07 3159.1002 L 4272.66 3158.8902 L 4272.45 3158.6902 L 4272.25 3158.2802 L 4272.25 3157.4602 L 4272.45 3157.0502 L 4272.66 3156.8502 L 4273.07 3156.6402 L 4273.48 3156.6402 L 4273.89 3156.8502 L 4274.5 3157.2602 L 4276.54 3159.3002 L 4276.54 3156.4402 M 4275.52 3154.8802 L 4275.73 3155.0902 L 4275.93 3154.8802 L 4275.73 3154.6802 L 4275.52 3154.8802 M 4272.25 3150.8702 L 4272.25 3152.9202 L 4274.09 3153.1202 L 4273.89 3152.9202 L 4273.68 3152.3102 L 4273.68 3151.6902 L 4273.89 3151.0802 L 4274.29 3150.6702 L 4274.91 3150.4702 L 4275.32 3150.4702 L 4275.93 3150.6702 L 4276.34 3151.0802 L 4276.54 3151.6902 L 4276.54 3152.3102 L 4276.34 3152.9202 L 4276.14 3153.1202 L 4275.73 3153.3302 M 4272.25 3147.0702 L 4275.11 3149.1202 L 4275.11 3146.0502 M 4272.25 3147.0702 L 4276.54 3147.0702 M 4273.68 3144.7002 L 4276.54 3144.7002 M 4274.5 3144.7002 L 4273.89 3144.0802 L 4273.68 3143.6702 L 4273.68 3143.0602 L 4273.89 3142.6502 L 4274.5 3142.4502 L 4276.54 3142.4502 M 4274.5 3142.4502 L 4273.89 3141.8302 L 4273.68 3141.4202 L 4273.68 3140.8102 L 4273.89 3140.4002 L 4274.5 3140.2002 L 4276.54 3140.2002 M 4273.68 3138.8502 L 4276.54 3138.8502 M 4274.5 3138.8502 L 4273.89 3138.2302 L 4273.68 3137.8202 L 4273.68 3137.2102 L 4273.89 3136.8002 L 4274.5 3136.6002 L 4276.54 3136.6002 M 4274.5 3136.6002 L 4273.89 3135.9802 L 4273.68 3135.5702 L 4273.68 3134.9602 L 4273.89 3134.5502 L 4274.5 3134.3502 L 4276.54 3134.3502 M 4273.07 3129.8502 L 4272.86 3129.4402 L 4272.25 3128.8202 L 4276.54 3128.8202 M 4273.48 3126.4502 L 4275.93 3126.4502 M 4274.09 3127.4702 L 4275.32 3125.4302 M 4274.09 3125.4302 L 4275.32 3127.4702 M 4272.25 3123.0602 L 4272.45 3123.6702 L 4272.86 3123.8702 L 4273.27 3123.8702 L 4273.68 3123.6702 L 4273.89 3123.2602 L 4274.09 3122.4402 L 4274.29 3121.8302 L 4274.7 3121.4202 L 4275.11 3121.2202 L 4275.73 3121.2202 L 4276.14 3121.4202 L 4276.34 3121.6202 L 4276.54 3122.2402 L 4276.54 3123.0602 L 4276.34 3123.6702 L 4276.14 3123.8702 L 4275.73 3124.0802 L 4275.11 3124.0802 L 4274.7 3123.8702 L 4274.29 3123.4702 L 4274.09 3122.8502 L 4273.89 3122.0302 L 4273.68 3121.6202 L 4273.27 3121.4202 L 4272.86 3121.4202 L 4272.45 3121.6202 L 4272.25 3122.2402 L 4272.25 3123.0602 M 4272.25 3119.8702 L 4276.54 3119.8702 M 4272.25 3119.8702 L 4272.25 3118.0202 L 4272.45 3117.4102 L 4272.66 3117.2102 L 4273.07 3117.0002 L 4273.68 3117.0002 L 4274.09 3117.2102 L 4274.29 3117.4102 L 4274.5 3118.0202 L 4274.5 3119.8702" fill="none"  stroke-width="0.6" c_note="note_name" /></g><g c_partid="part_pcbtext" c_etype="" c_origin="4265,3117" c_rotation="270" c_mirror="0" id="gge15" locked="0" layerid="3" c_shapetype="group" ><path c_fontsize="4.5" c_fontfamily="" c_text="N1H" d="M 4269.54 3117 L 4265.25 3117 M 4269.54 3117 L 4265.25 3119.86 M 4269.54 3119.86 L 4265.25 3119.86 M 4268.72 3121.21 L 4268.93 3121.62 L 4269.54 3122.24 L 4265.25 3122.24 M 4269.54 3123.59 L 4265.25 3123.59 M 4269.54 3126.45 L 4265.25 3126.45 M 4267.5 3123.59 L 4267.5 3126.45" fill="none"  stroke-width="0.6" c_note="note_pre" /></g><g c_partid="part_pcbtext" c_etype="" c_origin="4189.5,3051" c_rotation="0" c_mirror="0" id="gge189" locked="0" layerid="3" c_shapetype="group" display="none"><path c_fontsize="4.5" c_fontfamily="" c_text="SN74AHCT595NE4" d="M 4192.36 3047.07 L 4191.95 3046.66 L 4191.34 3046.46 L 4190.52 3046.46 L 4189.91 3046.66 L 4189.5 3047.07 L 4189.5 3047.48 L 4189.7 3047.89 L 4189.91 3048.1 L 4190.32 3048.3 L 4191.55 3048.71 L 4191.95 3048.91 L 4192.16 3049.12 L 4192.36 3049.53 L 4192.36 3050.14 L 4191.95 3050.55 L 4191.34 3050.75 L 4190.52 3050.75 L 4189.91 3050.55 L 4189.5 3050.14 M 4193.71 3046.46 L 4193.71 3050.75 M 4193.71 3046.46 L 4196.58 3050.75 M 4196.58 3046.46 L 4196.58 3050.75 M 4200.79 3046.46 L 4198.75 3050.75 M 4197.93 3046.46 L 4200.79 3046.46 M 4204.19 3046.46 L 4202.14 3049.32 L 4205.21 3049.32 M 4204.19 3046.46 L 4204.19 3050.75 M 4208.2 3046.46 L 4206.56 3050.75 M 4208.2 3046.46 L 4209.83 3050.75 M 4207.17 3049.32 L 4209.22 3049.32 M 4211.18 3046.46 L 4211.18 3050.75 M 4214.05 3046.46 L 4214.05 3050.75 M 4211.18 3048.5 L 4214.05 3048.5 M 4218.46 3047.48 L 4218.26 3047.07 L 4217.85 3046.66 L 4217.44 3046.46 L 4216.62 3046.46 L 4216.21 3046.66 L 4215.8 3047.07 L 4215.6 3047.48 L 4215.4 3048.1 L 4215.4 3049.12 L 4215.6 3049.73 L 4215.8 3050.14 L 4216.21 3050.55 L 4216.62 3050.75 L 4217.44 3050.75 L 4217.85 3050.55 L 4218.26 3050.14 L 4218.46 3049.73 M 4221.25 3046.46 L 4221.25 3050.75 M 4219.81 3046.46 L 4222.68 3046.46 M 4226.48 3046.46 L 4224.44 3046.46 L 4224.23 3048.3 L 4224.44 3048.1 L 4225.05 3047.89 L 4225.66 3047.89 L 4226.28 3048.1 L 4226.69 3048.5 L 4226.89 3049.12 L 4226.89 3049.53 L 4226.69 3050.14 L 4226.28 3050.55 L 4225.66 3050.75 L 4225.05 3050.75 L 4224.44 3050.55 L 4224.23 3050.35 L 4224.03 3049.94 M 4230.9 3047.89 L 4230.7 3048.5 L 4230.29 3048.91 L 4229.67 3049.12 L 4229.47 3049.12 L 4228.85 3048.91 L 4228.45 3048.5 L 4228.24 3047.89 L 4228.24 3047.69 L 4228.45 3047.07 L 4228.85 3046.66 L 4229.47 3046.46 L 4229.67 3046.46 L 4230.29 3046.66 L 4230.7 3047.07 L 4230.9 3047.89 L 4230.9 3048.91 L 4230.7 3049.94 L 4230.29 3050.55 L 4229.67 3050.75 L 4229.26 3050.75 L 4228.65 3050.55 L 4228.45 3050.14 M 4234.7 3046.46 L 4232.66 3046.46 L 4232.45 3048.3 L 4232.66 3048.1 L 4233.27 3047.89 L 4233.89 3047.89 L 4234.5 3048.1 L 4234.91 3048.5 L 4235.11 3049.12 L 4235.11 3049.53 L 4234.91 3050.14 L 4234.5 3050.55 L 4233.89 3050.75 L 4233.27 3050.75 L 4232.66 3050.55 L 4232.45 3050.35 L 4232.25 3049.94 M 4236.46 3046.46 L 4236.46 3050.75 M 4236.46 3046.46 L 4239.33 3050.75 M 4239.33 3046.46 L 4239.33 3050.75 M 4240.68 3046.46 L 4240.68 3050.75 M 4240.68 3046.46 L 4243.34 3046.46 M 4240.68 3048.5 L 4242.31 3048.5 M 4240.68 3050.75 L 4243.34 3050.75 M 4246.73 3046.46 L 4244.69 3049.32 L 4247.75 3049.32 M 4246.73 3046.46 L 4246.73 3050.75" fill="none"  stroke-width="0.6" c_note="note_name" /></g><g c_partid="part_pcbtext" c_etype="" c_origin="4189.5,3058" c_rotation="0" c_mirror="0" id="gge195" locked="0" layerid="3" c_shapetype="group" ><path c_fontsize="4.5" c_fontfamily="" c_text="U1" d="M 4189.5 3053.46 L 4189.5 3056.53 L 4189.7 3057.14 L 4190.11 3057.55 L 4190.73 3057.75 L 4191.14 3057.75 L 4191.75 3057.55 L 4192.16 3057.14 L 4192.36 3056.53 L 4192.36 3053.46 M 4193.71 3054.28 L 4194.12 3054.07 L 4194.74 3053.46 L 4194.74 3057.75" fill="none"  stroke-width="0.6" c_note="note_pre" /></g><g c_partid="part_pcbtext" c_etype="" c_origin="4188.5,3101.5" c_rotation="0" c_mirror="0" id="gge567" locked="0" layerid="3" c_shapetype="group" display="none"><path c_fontsize="4.5" c_fontfamily="" c_text="SN76489AN" d="M 4191.36 3097.57 L 4190.95 3097.16 L 4190.34 3096.96 L 4189.52 3096.96 L 4188.91 3097.16 L 4188.5 3097.57 L 4188.5 3097.98 L 4188.7 3098.39 L 4188.91 3098.6 L 4189.32 3098.8 L 4190.55 3099.21 L 4190.95 3099.41 L 4191.16 3099.62 L 4191.36 3100.03 L 4191.36 3100.64 L 4190.95 3101.05 L 4190.34 3101.25 L 4189.52 3101.25 L 4188.91 3101.05 L 4188.5 3100.64 M 4192.71 3096.96 L 4192.71 3101.25 M 4192.71 3096.96 L 4195.58 3101.25 M 4195.58 3096.96 L 4195.58 3101.25 M 4199.79 3096.96 L 4197.75 3101.25 M 4196.93 3096.96 L 4199.79 3096.96 M 4203.6 3097.57 L 4203.39 3097.16 L 4202.78 3096.96 L 4202.37 3096.96 L 4201.75 3097.16 L 4201.35 3097.78 L 4201.14 3098.8 L 4201.14 3099.82 L 4201.35 3100.64 L 4201.75 3101.05 L 4202.37 3101.25 L 4202.57 3101.25 L 4203.19 3101.05 L 4203.6 3100.64 L 4203.8 3100.03 L 4203.8 3099.82 L 4203.6 3099.21 L 4203.19 3098.8 L 4202.57 3098.6 L 4202.37 3098.6 L 4201.75 3098.8 L 4201.35 3099.21 L 4201.14 3099.82 M 4207.2 3096.96 L 4205.15 3099.82 L 4208.22 3099.82 M 4207.2 3096.96 L 4207.2 3101.25 M 4210.59 3096.96 L 4209.98 3097.16 L 4209.77 3097.57 L 4209.77 3097.98 L 4209.98 3098.39 L 4210.39 3098.6 L 4211.2 3098.8 L 4211.82 3099 L 4212.23 3099.41 L 4212.43 3099.82 L 4212.43 3100.44 L 4212.23 3100.85 L 4212.02 3101.05 L 4211.41 3101.25 L 4210.59 3101.25 L 4209.98 3101.05 L 4209.77 3100.85 L 4209.57 3100.44 L 4209.57 3099.82 L 4209.77 3099.41 L 4210.18 3099 L 4210.8 3098.8 L 4211.61 3098.6 L 4212.02 3098.39 L 4212.23 3097.98 L 4212.23 3097.57 L 4212.02 3097.16 L 4211.41 3096.96 L 4210.59 3096.96 M 4216.44 3098.39 L 4216.24 3099 L 4215.83 3099.41 L 4215.21 3099.62 L 4215.01 3099.62 L 4214.4 3099.41 L 4213.99 3099 L 4213.78 3098.39 L 4213.78 3098.19 L 4213.99 3097.57 L 4214.4 3097.16 L 4215.01 3096.96 L 4215.21 3096.96 L 4215.83 3097.16 L 4216.24 3097.57 L 4216.44 3098.39 L 4216.44 3099.41 L 4216.24 3100.44 L 4215.83 3101.05 L 4215.21 3101.25 L 4214.8 3101.25 L 4214.19 3101.05 L 4213.99 3100.64 M 4219.43 3096.96 L 4217.79 3101.25 M 4219.43 3096.96 L 4221.06 3101.25 M 4218.4 3099.82 L 4220.45 3099.82 M 4222.41 3096.96 L 4222.41 3101.25 M 4222.41 3096.96 L 4225.28 3101.25 M 4225.28 3096.96 L 4225.28 3101.25" fill="none"  stroke-width="0.6" c_note="note_name" /></g><g c_partid="part_pcbtext" c_etype="" c_origin="4188.5,3108.5" c_rotation="0" c_mirror="0" id="gge573" locked="0" layerid="3" c_shapetype="group" ><path c_fontsize="4.5" c_fontfamily="" c_text="U2" d="M 4188.5 3103.96 L 4188.5 3107.03 L 4188.7 3107.64 L 4189.11 3108.05 L 4189.73 3108.25 L 4190.14 3108.25 L 4190.75 3108.05 L 4191.16 3107.64 L 4191.36 3107.03 L 4191.36 3103.96 M 4192.92 3104.98 L 4192.92 3104.78 L 4193.12 3104.37 L 4193.33 3104.16 L 4193.74 3103.96 L 4194.55 3103.96 L 4194.96 3104.16 L 4195.17 3104.37 L 4195.37 3104.78 L 4195.37 3105.19 L 4195.17 3105.6 L 4194.76 3106.21 L 4192.71 3108.25 L 4195.58 3108.25" fill="none"  stroke-width="0.6" c_note="note_pre" /></g><g c_partid="part_pcbtext" c_etype="" c_origin="4073,3122.5" c_rotation="0" c_mirror="0" id="gge840" locked="0" layerid="3" c_shapetype="group" display="none"><path c_fontsize="4.5" c_fontfamily="" c_text="AUDIO-JACK2.5MM" d="M 4074.64 3117.96 L 4073 3122.25 M 4074.64 3117.96 L 4076.27 3122.25 M 4073.61 3120.82 L 4075.66 3120.82 M 4077.62 3117.96 L 4077.62 3121.03 L 4077.83 3121.64 L 4078.24 3122.05 L 4078.85 3122.25 L 4079.26 3122.25 L 4079.87 3122.05 L 4080.28 3121.64 L 4080.49 3121.03 L 4080.49 3117.96 M 4081.84 3117.96 L 4081.84 3122.25 M 4081.84 3117.96 L 4083.27 3117.96 L 4083.88 3118.16 L 4084.29 3118.57 L 4084.5 3118.98 L 4084.7 3119.6 L 4084.7 3120.62 L 4084.5 3121.23 L 4084.29 3121.64 L 4083.88 3122.05 L 4083.27 3122.25 L 4081.84 3122.25 M 4086.05 3117.96 L 4086.05 3122.25 M 4088.63 3117.96 L 4088.22 3118.16 L 4087.81 3118.57 L 4087.6 3118.98 L 4087.4 3119.6 L 4087.4 3120.62 L 4087.6 3121.23 L 4087.81 3121.64 L 4088.22 3122.05 L 4088.63 3122.25 L 4089.45 3122.25 L 4089.85 3122.05 L 4090.26 3121.64 L 4090.47 3121.23 L 4090.67 3120.62 L 4090.67 3119.6 L 4090.47 3118.98 L 4090.26 3118.57 L 4089.85 3118.16 L 4089.45 3117.96 L 4088.63 3117.96 M 4092.02 3120.41 L 4095.7 3120.41 M 4099.1 3117.96 L 4099.1 3121.23 L 4098.9 3121.85 L 4098.69 3122.05 L 4098.28 3122.25 L 4097.87 3122.25 L 4097.46 3122.05 L 4097.26 3121.85 L 4097.05 3121.23 L 4097.05 3120.82 M 4102.09 3117.96 L 4100.45 3122.25 M 4102.09 3117.96 L 4103.72 3122.25 M 4101.06 3120.82 L 4103.11 3120.82 M 4108.14 3118.98 L 4107.94 3118.57 L 4107.53 3118.16 L 4107.12 3117.96 L 4106.3 3117.96 L 4105.89 3118.16 L 4105.48 3118.57 L 4105.28 3118.98 L 4105.07 3119.6 L 4105.07 3120.62 L 4105.28 3121.23 L 4105.48 3121.64 L 4105.89 3122.05 L 4106.3 3122.25 L 4107.12 3122.25 L 4107.53 3122.05 L 4107.94 3121.64 L 4108.14 3121.23 M 4109.49 3117.96 L 4109.49 3122.25 M 4112.35 3117.96 L 4109.49 3120.82 M 4110.51 3119.8 L 4112.35 3122.25 M 4113.91 3118.98 L 4113.91 3118.78 L 4114.11 3118.37 L 4114.32 3118.16 L 4114.73 3117.96 L 4115.55 3117.96 L 4115.95 3118.16 L 4116.16 3118.37 L 4116.36 3118.78 L 4116.36 3119.19 L 4116.16 3119.6 L 4115.75 3120.21 L 4113.7 3122.25 L 4116.57 3122.25 M 4118.12 3121.23 L 4117.92 3121.44 L 4118.12 3121.64 L 4118.33 3121.44 L 4118.12 3121.23 M 4122.13 3117.96 L 4120.09 3117.96 L 4119.88 3119.8 L 4120.09 3119.6 L 4120.7 3119.39 L 4121.31 3119.39 L 4121.93 3119.6 L 4122.34 3120 L 4122.54 3120.62 L 4122.54 3121.03 L 4122.34 3121.64 L 4121.93 3122.05 L 4121.31 3122.25 L 4120.7 3122.25 L 4120.09 3122.05 L 4119.88 3121.85 L 4119.68 3121.44 M 4123.89 3117.96 L 4123.89 3122.25 M 4123.89 3117.96 L 4125.53 3122.25 M 4127.16 3117.96 L 4125.53 3122.25 M 4127.16 3117.96 L 4127.16 3122.25 M 4128.51 3117.96 L 4128.51 3122.25 M 4128.51 3117.96 L 4130.15 3122.25 M 4131.79 3117.96 L 4130.15 3122.25 M 4131.79 3117.96 L 4131.79 3122.25" fill="none"  stroke-width="0.6" c_note="note_name" /></g><g c_partid="part_pcbtext" c_etype="" c_origin="4073,3129.5" c_rotation="0" c_mirror="0" id="gge846" locked="0" layerid="3" c_shapetype="group" ><path c_fontsize="4.5" c_fontfamily="" c_text="U3" d="M 4073 3124.96 L 4073 3128.03 L 4073.2 3128.64 L 4073.61 3129.05 L 4074.23 3129.25 L 4074.64 3129.25 L 4075.25 3129.05 L 4075.66 3128.64 L 4075.86 3128.03 L 4075.86 3124.96 M 4077.62 3124.96 L 4079.87 3124.96 L 4078.65 3126.6 L 4079.26 3126.6 L 4079.67 3126.8 L 4079.87 3127 L 4080.08 3127.62 L 4080.08 3128.03 L 4079.87 3128.64 L 4079.46 3129.05 L 4078.85 3129.25 L 4078.24 3129.25 L 4077.62 3129.05 L 4077.42 3128.85 L 4077.21 3128.44" fill="none"  stroke-width="0.6" c_note="note_pre" /></g><g c_partid="part_pcbtext" c_etype="" c_origin="4115,3053" c_rotation="0" c_mirror="0" id="gge939" locked="0" layerid="3" c_shapetype="group" display="none"><path c_fontsize="4.5" c_fontfamily="" c_text="5H8ET-20.000" d="M 4117.45 3048.46 L 4115.41 3048.46 L 4115.2 3050.3 L 4115.41 3050.1 L 4116.02 3049.89 L 4116.64 3049.89 L 4117.25 3050.1 L 4117.66 3050.5 L 4117.86 3051.12 L 4117.86 3051.53 L 4117.66 3052.14 L 4117.25 3052.55 L 4116.64 3052.75 L 4116.02 3052.75 L 4115.41 3052.55 L 4115.2 3052.35 L 4115 3051.94 M 4119.21 3048.46 L 4119.21 3052.75 M 4122.08 3048.46 L 4122.08 3052.75 M 4119.21 3050.5 L 4122.08 3050.5 M 4124.45 3048.46 L 4123.84 3048.66 L 4123.63 3049.07 L 4123.63 3049.48 L 4123.84 3049.89 L 4124.25 3050.1 L 4125.06 3050.3 L 4125.68 3050.5 L 4126.09 3050.91 L 4126.29 3051.32 L 4126.29 3051.94 L 4126.09 3052.35 L 4125.88 3052.55 L 4125.27 3052.75 L 4124.45 3052.75 L 4123.84 3052.55 L 4123.63 3052.35 L 4123.43 3051.94 L 4123.43 3051.32 L 4123.63 3050.91 L 4124.04 3050.5 L 4124.65 3050.3 L 4125.47 3050.1 L 4125.88 3049.89 L 4126.09 3049.48 L 4126.09 3049.07 L 4125.88 3048.66 L 4125.27 3048.46 L 4124.45 3048.46 M 4127.64 3048.46 L 4127.64 3052.75 M 4127.64 3048.46 L 4130.3 3048.46 M 4127.64 3050.5 L 4129.28 3050.5 M 4127.64 3052.75 L 4130.3 3052.75 M 4133.08 3048.46 L 4133.08 3052.75 M 4131.65 3048.46 L 4134.51 3048.46 M 4135.86 3050.91 L 4139.55 3050.91 M 4141.1 3049.48 L 4141.1 3049.28 L 4141.3 3048.87 L 4141.51 3048.66 L 4141.92 3048.46 L 4142.74 3048.46 L 4143.15 3048.66 L 4143.35 3048.87 L 4143.55 3049.28 L 4143.55 3049.69 L 4143.35 3050.1 L 4142.94 3050.71 L 4140.9 3052.75 L 4143.76 3052.75 M 4146.34 3048.46 L 4145.72 3048.66 L 4145.31 3049.28 L 4145.11 3050.3 L 4145.11 3050.91 L 4145.31 3051.94 L 4145.72 3052.55 L 4146.34 3052.75 L 4146.75 3052.75 L 4147.36 3052.55 L 4147.77 3051.94 L 4147.97 3050.91 L 4147.97 3050.3 L 4147.77 3049.28 L 4147.36 3048.66 L 4146.75 3048.46 L 4146.34 3048.46 M 4149.53 3051.73 L 4149.32 3051.94 L 4149.53 3052.14 L 4149.73 3051.94 L 4149.53 3051.73 M 4152.31 3048.46 L 4151.7 3048.66 L 4151.29 3049.28 L 4151.08 3050.3 L 4151.08 3050.91 L 4151.29 3051.94 L 4151.7 3052.55 L 4152.31 3052.75 L 4152.72 3052.75 L 4153.33 3052.55 L 4153.74 3051.94 L 4153.95 3050.91 L 4153.95 3050.3 L 4153.74 3049.28 L 4153.33 3048.66 L 4152.72 3048.46 L 4152.31 3048.46 M 4156.52 3048.46 L 4155.91 3048.66 L 4155.5 3049.28 L 4155.3 3050.3 L 4155.3 3050.91 L 4155.5 3051.94 L 4155.91 3052.55 L 4156.52 3052.75 L 4156.93 3052.75 L 4157.55 3052.55 L 4157.95 3051.94 L 4158.16 3050.91 L 4158.16 3050.3 L 4157.95 3049.28 L 4157.55 3048.66 L 4156.93 3048.46 L 4156.52 3048.46 M 4160.74 3048.46 L 4160.12 3048.66 L 4159.71 3049.28 L 4159.51 3050.3 L 4159.51 3050.91 L 4159.71 3051.94 L 4160.12 3052.55 L 4160.74 3052.75 L 4161.15 3052.75 L 4161.76 3052.55 L 4162.17 3051.94 L 4162.37 3050.91 L 4162.37 3050.3 L 4162.17 3049.28 L 4161.76 3048.66 L 4161.15 3048.46 L 4160.74 3048.46" fill="none"  stroke-width="0.6" c_note="note_name" /></g><g c_partid="part_pcbtext" c_etype="" c_origin="4115,3060" c_rotation="0" c_mirror="0" id="gge945" locked="0" layerid="3" c_shapetype="group" ><path c_fontsize="4.5" c_fontfamily="" c_text="Y2" d="M 4115 3055.46 L 4116.64 3057.5 L 4116.64 3059.75 M 4118.27 3055.46 L 4116.64 3057.5 M 4119.83 3056.48 L 4119.83 3056.28 L 4120.03 3055.87 L 4120.24 3055.66 L 4120.65 3055.46 L 4121.46 3055.46 L 4121.87 3055.66 L 4122.08 3055.87 L 4122.28 3056.28 L 4122.28 3056.69 L 4122.08 3057.1 L 4121.67 3057.71 L 4119.62 3059.75 L 4122.49 3059.75" fill="none"  stroke-width="0.6" c_note="note_pre" /></g><path d="M 4153.5078 3076.0496 A 2.9504 2.9504 0 0 1 4153.5079 3081.9504" locked="0"  fill="none" stroke-width="0.5906" c_helper_type="arc2" net="" layerid="3" id="gge210" /><path d="M 4149.5 3125.5 A 3 3 0 0 1 4149.5 3131.5" locked="0"  fill="none" stroke-width="1" c_helper_type="arc2" net="" layerid="3" id="gge585" /><circle cx="4150.713" cy="3094.748" r="0.394" stroke-width="1" fill="none" layerid="3" id="gge213" locked="0"  /><circle cx="4154.5" cy="3134.5" r="2" stroke-width="1" fill="none" layerid="3" id="gge588" locked="0"  /><circle cx="4149" cy="3143" r="0.5" stroke-width="1" fill="none" layerid="3" id="gge591" locked="0"  /><polyline points="4047.5591 3049.5472 4271.9685 3049.5472 4271.9685 3199.1535 4047.5591 3199.1535 4047.5591 3049.5472" stroke-width="1"  stroke-linecap="round" fill="none" layerid="10" net="" id="gge1098" locked="0" /></svg>